<svg width="30.000000" height="30.000000" viewBox="0 0 30 30" fill="none" xmlns="http://www.w3.org/2000/svg" xmlns:xlink="http://www.w3.org/1999/xlink">
	<desc>
			Created with Pixso.
	</desc>
	<defs>
		<clipPath id="clip392_2838">
			<rect id="phone-icon-mobile" rx="0.000000" width="29.000000" height="29.000000" transform="translate(0.500000 0.500000)" fill="white" fill-opacity="0"/>
		</clipPath>
	</defs>
	<rect id="phone-icon-mobile" rx="0.000000" width="29.000000" height="29.000000" transform="translate(0.500000 0.500000)" fill="#FFFFFF" fill-opacity="0"/>
	<g clip-path="url(#clip392_2838)">
		<path id="Vector" d="M26.05 18.56L20.53 16.09L20.52 16.08C20.23 15.96 19.92 15.91 19.61 15.94C19.3 15.97 19 16.07 18.74 16.25C18.71 16.27 18.68 16.29 18.65 16.31L15.8 18.75C13.99 17.87 12.13 16.02 11.25 14.23L13.68 11.34C13.71 11.31 13.73 11.28 13.75 11.25C13.92 10.99 14.02 10.69 14.05 10.38C14.08 10.08 14.03 9.77 13.91 9.48L13.91 9.47L11.43 3.94C11.26 3.57 10.99 3.26 10.64 3.06C10.29 2.85 9.88 2.77 9.48 2.82C7.89 3.03 6.43 3.81 5.38 5.02C4.32 6.22 3.74 7.77 3.75 9.37C3.75 18.67 11.32 26.25 20.62 26.25C22.22 26.25 23.77 25.67 24.97 24.61C26.18 23.56 26.96 22.1 27.17 20.51C27.22 20.11 27.14 19.7 26.93 19.35C26.73 19 26.42 18.73 26.05 18.56ZM20.62 24.37C16.64 24.37 12.83 22.78 10.02 19.97C7.21 17.16 5.62 13.35 5.62 9.37C5.62 8.23 6.03 7.12 6.78 6.26C7.53 5.39 8.57 4.83 9.71 4.68C9.71 4.69 9.71 4.69 9.71 4.7L12.17 10.2L9.75 13.1C9.72 13.13 9.7 13.16 9.68 13.19C9.5 13.46 9.4 13.78 9.38 14.1C9.36 14.42 9.42 14.74 9.56 15.03C10.62 17.2 12.81 19.38 15.01 20.44C15.3 20.58 15.62 20.64 15.95 20.61C16.27 20.59 16.58 20.48 16.85 20.3C16.88 20.28 16.91 20.26 16.94 20.24L19.79 17.81L25.29 20.27L25.31 20.27C25.16 21.41 24.6 22.45 23.74 23.21C22.87 23.96 21.77 24.37 20.62 24.37Z" fill="#263238" fill-opacity="1.000000" fill-rule="nonzero"/>
	</g>
</svg>
