<svg width="45" height="45" viewBox="0 0 45 45" fill="none" xmlns="http://www.w3.org/2000/svg">
<path d="M42.1875 2.8125V42.1875H2.8125V2.8125H42.1875ZM43.5938 1.40625H1.40625V43.5938H43.5938V1.40625Z" fill="#414753"/>
<path d="M42.1875 2.8125V42.1875H2.8125V2.8125H42.1875ZM43.5938 1.40625H1.40625V43.5938H43.5938V1.40625Z" fill="#414753"/>
<path d="M33.57 31.6744V23.4872C33.57 19.1011 31.2286 17.0592 28.1067 17.0592C25.5867 17.0592 24.4589 18.4458 23.8289 19.4175V17.3953H19.0828C19.1461 18.7355 19.0828 31.6744 19.0828 31.6744H23.8289V23.6995C23.8289 23.2734 23.8598 22.8473 23.985 22.5422C24.3281 21.69 25.1086 20.8069 26.4192 20.8069C28.1376 20.8069 28.8239 22.1161 28.8239 24.0356V31.6758L33.57 31.6744ZM14.0836 15.4463C15.7387 15.4463 16.7695 14.3494 16.7695 12.9783C16.7386 11.5777 15.7387 10.5117 14.1159 10.5117C12.4931 10.5117 11.43 11.5777 11.43 12.9783C11.43 14.3494 12.4608 15.4463 14.0541 15.4463H14.0836ZM16.4559 31.6744V17.3953H11.7098V31.6744H16.4559Z" fill="#EFA359"/>
</svg>
