<svg width="45" height="45" viewBox="0 0 45 45" fill="none" xmlns="http://www.w3.org/2000/svg">
<path d="M43.5 1.5V43.5H1.5V1.5H43.5ZM45 0H0V45H45V0Z" fill="#414753"/>
<path d="M43.5 1.5V43.5H1.5V1.5H43.5ZM45 0H0V45H45V0Z" fill="#414753"/>
<path d="M35.8237 16.7025C35.8237 16.7025 35.5583 14.703 34.7438 13.8225C33.7087 12.669 32.5508 12.6615 32.0198 12.5955C28.2143 12.3 22.5067 12.3 22.5067 12.3H22.4933C22.4933 12.3 16.7858 12.3 12.9818 12.5955C12.4508 12.6615 11.2928 12.6675 10.2578 13.8225C9.44325 14.703 9.17775 16.7025 9.17775 16.7025C9.17775 16.7025 8.90625 19.0485 8.90625 21.396V23.595C8.90625 25.944 9.17775 28.2901 9.17775 28.2901C9.17775 28.2901 9.44325 30.2895 10.2578 31.1685C11.2928 32.322 12.6503 32.2875 13.2563 32.409C15.4313 32.6311 22.5007 32.7 22.5007 32.7C22.5007 32.7 28.2143 32.6896 32.0198 32.3986C32.5508 32.3311 33.7087 32.3235 34.7438 31.17C35.5583 30.291 35.8237 28.2915 35.8237 28.2915C35.8237 28.2915 36.0952 25.9441 36.0952 23.5965V21.3975C36.0952 19.0485 35.8237 16.7025 35.8237 16.7025ZM19.1048 27.6V17.4L27.6038 22.5L19.1048 27.6Z" fill="#414753"/>
</svg>
