<svg width="45" height="45" viewBox="0 0 45 45" fill="none" xmlns="http://www.w3.org/2000/svg">
<path d="M42.1875 2.8125V42.1875H2.8125V2.8125H42.1875ZM43.5938 1.40625H1.40625V43.5938H43.5938V1.40625Z" fill="#414753"/>
<path d="M42.1875 2.8125V42.1875H2.8125V2.8125H42.1875ZM43.5938 1.40625H1.40625V43.5938H43.5938V1.40625Z" fill="#414753"/>
<path d="M22.732 9.68628V15.6797H28.7255V19.426H22.732V25.4194C22.732 26.8116 22.8642 27.9296 23.0119 28.3247C23.1595 28.7185 23.4323 29.0335 23.8345 29.2711C24.3675 29.5903 24.9736 29.7507 25.6584 29.7507C26.8748 29.7507 28.2881 29.3372 29.475 28.4161V32.1624C28.4766 32.7867 27.3305 33.1749 26.498 33.3689C25.6669 33.5616 24.7669 33.66 23.7994 33.66C22.7883 33.66 21.8123 33.5489 20.8884 33.2438C20.0447 32.9667 19.5736 32.6588 18.9759 32.1483C18.3811 31.635 18.0914 31.1189 17.8608 30.5396C17.6301 29.963 17.4867 28.7649 17.4867 27.6666V19.426H14.49V15.6797C15.4491 15.6094 16.2436 15.3394 16.913 14.7685C17.588 14.1947 18.128 13.5071 18.533 12.7055C18.9408 11.9025 18.9858 10.9196 18.9858 9.68628H22.732Z" fill="#414753"/>
</svg>
