<svg width="26.027954" height="30.000000" viewBox="0 0 26.028 30" fill="none" xmlns="http://www.w3.org/2000/svg" xmlns:xlink="http://www.w3.org/1999/xlink">
	<desc>
			Created with Pixso.
	</desc>
	<defs>
		<clipPath id="clip4_719">
			<rect id="icon-phone" width="26.028009" height="30.000000" fill="white" fill-opacity="0"/>
		</clipPath>
	</defs>
	<rect id="icon-phone" width="26.028009" height="30.000000" fill="#FFFFFF" fill-opacity="0"/>
	<g clip-path="url(#clip4_719)">
		<path id="Vector" d="M22.6 18.56L17.81 16.09L17.8 16.08C17.55 15.96 17.28 15.91 17.01 15.94C16.74 15.97 16.48 16.07 16.26 16.25C16.23 16.27 16.21 16.29 16.18 16.31L13.71 18.75C12.14 17.87 10.52 16.02 9.76 14.23L11.87 11.34C11.89 11.31 11.91 11.28 11.93 11.25C12.08 10.99 12.17 10.69 12.19 10.38C12.21 10.08 12.17 9.77 12.06 9.48L12.06 9.47L9.91 3.94C9.77 3.57 9.53 3.26 9.23 3.06C8.92 2.85 8.57 2.77 8.22 2.82C6.84 3.03 5.58 3.81 4.66 5.02C3.75 6.22 3.25 7.77 3.25 9.37C3.25 18.67 9.82 26.25 17.89 26.25C19.28 26.25 20.62 25.67 21.67 24.61C22.71 23.56 23.39 22.1 23.57 20.51C23.61 20.11 23.54 19.7 23.37 19.35C23.19 19 22.93 18.73 22.6 18.56ZM17.89 24.37C14.44 24.37 11.13 22.78 8.69 19.97C6.25 17.16 4.88 13.35 4.88 9.37C4.87 8.23 5.23 7.12 5.88 6.26C6.53 5.39 7.44 4.83 8.42 4.68C8.42 4.69 8.42 4.69 8.42 4.7L10.56 10.2L8.45 13.1C8.43 13.13 8.41 13.16 8.4 13.19C8.24 13.46 8.15 13.78 8.14 14.1C8.12 14.42 8.17 14.74 8.29 15.03C9.22 17.2 11.11 19.38 13.02 20.44C13.27 20.58 13.55 20.64 13.83 20.61C14.11 20.59 14.39 20.48 14.62 20.3C14.65 20.28 14.67 20.26 14.69 20.24L17.17 17.81L21.94 20.27L21.96 20.27C21.83 21.41 21.34 22.45 20.59 23.21C19.84 23.96 18.88 24.37 17.89 24.37Z" fill="#EFA35A" fill-opacity="1.000000" fill-rule="nonzero"/>
	</g>
</svg>
