<svg width="45" height="45" viewBox="0 0 45 45" fill="none" xmlns="http://www.w3.org/2000/svg">
<path d="M36.4694 14.9968C36.6736 14.3187 36.4694 13.8214 35.504 13.8214H32.3059C31.4921 13.8214 31.1202 14.2516 30.9161 14.7241C30.9161 14.7241 29.29 18.6893 26.9859 21.2604C26.2421 22.0085 25.9023 22.2447 25.4969 22.2447C25.2942 22.2447 24.9996 22.0085 24.9996 21.3304V14.9968C24.9996 14.1831 24.7648 13.8214 24.0867 13.8214H19.0613C18.5538 13.8214 18.2475 14.1977 18.2475 14.5564C18.2475 15.3264 19.3996 15.5043 19.5177 17.6743V22.3818C19.5177 23.4129 19.3325 23.601 18.9242 23.601C17.8406 23.601 15.204 19.6212 13.6392 15.0654C13.3344 14.1802 13.0267 13.8229 12.21 13.8229H9.01335C8.09898 13.8229 7.91669 14.2531 7.91669 14.7256C7.91669 15.5743 9.00023 19.7743 12.964 25.3291C15.6065 29.1222 19.3267 31.1785 22.7159 31.1785C24.7473 31.1785 24.9981 30.722 24.9981 29.9345V27.0675C24.9981 26.1545 25.1921 25.9708 25.8352 25.9708C26.3077 25.9708 27.1215 26.21 29.0188 28.0372C31.1859 30.2043 31.5446 31.177 32.7623 31.177H35.959C36.8719 31.177 37.3284 30.7206 37.0659 29.8193C36.7786 28.9225 35.7431 27.6172 34.3694 26.0729C33.6227 25.192 32.5071 24.2441 32.1673 23.7702C31.6934 23.1591 31.8304 22.8893 32.1673 22.3468C32.1688 22.3483 36.064 16.862 36.4694 14.9968Z" fill="#414753"/>
<path d="M44.25 0.75V44.25H0.75V0.75H44.25Z" stroke="#414753" stroke-width="1.5"/>
</svg>
