<svg width="50.000122" height="46.000000" viewBox="0 0 50.0001 46" fill="none" xmlns="http://www.w3.org/2000/svg" xmlns:xlink="http://www.w3.org/1999/xlink">
	<desc>
			Created with Pixso.
	</desc>
	<defs/>
	<path id="Vector" d="M0.04 16.64L0.05 16.65C0.19 16.57 0.3 16.39 0.41 16.28C0.67 16.02 1.2 15.5 1.42 15.25C1.62 15.03 1.87 14.8 2.05 14.61L2.4 14.23C2.44 14.19 2.47 14.18 2.5 14.14C2.54 14.1 2.51 14.12 2.54 14.09C2.58 14.05 2.54 14.08 2.58 14.05C2.66 13.97 2.68 13.94 2.76 13.86L3.84 12.75C3.91 12.68 3.95 12.63 4.01 12.56L5.73 10.81C5.77 10.77 5.76 10.76 5.81 10.72L6.35 10.16C6.52 9.98 6.7 9.77 6.89 9.6L7.24 9.23C7.31 9.16 7.36 9.12 7.43 9.05L7.88 8.58C7.9 8.56 7.93 8.53 7.96 8.5L8.32 8.11C8.39 8.05 8.44 8.01 8.5 7.94L9.94 6.45C9.97 6.41 10 6.4 10.03 6.36C10.23 6.13 10.48 5.91 10.66 5.72L11.37 4.97C11.43 4.9 11.49 4.85 11.54 4.78C11.65 4.84 13.35 6.75 13.59 7.01C13.93 7.38 14.26 7.75 14.61 8.13L15.61 9.24C15.77 9.44 15.96 9.62 16.13 9.8L17.14 10.91C17.83 11.65 18.47 12.41 19.16 13.14C19.33 13.33 19.5 13.51 19.67 13.69C19.77 13.79 19.83 13.88 19.93 13.99C20.02 14.08 20.09 14.17 20.18 14.26C20.36 14.44 20.54 14.63 20.68 14.82C20.83 15 21.02 15.18 21.19 15.37C21.37 15.56 21.52 15.74 21.69 15.92C21.96 16.21 22.5 16.83 22.71 17.04C22.9 17.22 23.06 17.41 23.21 17.6C23.34 17.75 23.48 17.87 23.6 18.01C23.65 18.07 23.67 18.1 23.72 18.15C23.87 18.31 24.33 18.85 24.49 18.99C24.57 19.06 24.85 19.03 24.97 19.03L29.07 19.03C29.61 19.03 30.65 19.06 31.12 19.02L32.42 17.27C32.54 17.12 32.64 16.99 32.75 16.84L33.4 15.96C33.51 15.81 33.61 15.69 33.72 15.54L39.26 8.13C39.32 8.04 39.36 8 39.42 7.92C39.79 7.45 40.2 6.89 40.56 6.4C40.67 6.25 40.77 6.12 40.89 5.96L41.38 5.31C41.42 5.25 41.47 5.15 41.54 5.1C41.72 5.28 42.4 6.32 42.59 6.57C42.95 7.06 43.27 7.55 43.62 8.03C44.15 8.75 44.64 9.49 45.16 10.23L47.22 13.14C47.5 13.54 49.75 16.68 49.78 16.8L49.81 16.78C49.66 16.43 49.49 16.08 49.32 15.73L42.93 2.09C42.69 1.58 42.13 0.44 41.96 0L14.95 3.54L14.02 2.65C13.98 2.6 13.94 2.58 13.9 2.54L12.87 1.53C12.69 1.38 12.49 1.15 12.31 0.98L12.08 0.76C12.04 0.72 12.01 0.7 11.96 0.65L11.51 0.21C11.46 0.15 11.34 0.03 11.28 0.01L10.22 1.56C10.1 1.73 9.97 1.91 9.87 2.08L9.16 3.12C8.92 3.47 8.69 3.82 8.46 4.17C7.99 4.87 7.52 5.55 7.05 6.25C6.81 6.6 6.57 6.94 6.35 7.29C5.93 7.95 5.39 8.68 4.95 9.36C4.55 9.97 3.96 10.83 3.54 11.44C2.61 12.81 1.63 14.24 0.72 15.6C0.63 15.75 0.06 16.55 0.04 16.64Z" fill="#353535" fill-opacity="1.000000" fill-rule="evenodd"/>
	<path id="Vector" d="M45.99 31.34C45.89 31.09 45.35 29.51 45.29 29.41L43.18 29.42L43.18 29.54L43.84 29.55C43.86 29.73 43.84 33.96 43.85 34.36C43.85 34.64 43.86 34.85 43.71 35.02C43.5 35.24 43.3 35.17 43.18 35.24L43.18 35.34C43.4 35.35 44.56 35.39 44.67 35.32L44.67 35.22C44.13 35.17 43.98 35.05 43.98 34.45L43.98 29.92C44.08 30.11 44.89 32.46 44.99 32.74C45.16 33.21 45.32 33.68 45.49 34.15C45.66 34.62 45.84 35.1 45.99 35.57L46.11 35.56C46.28 35.11 46.42 34.6 46.56 34.14C46.71 33.67 46.86 33.2 47.01 32.73L47.89 29.93L47.92 35.22C47.78 35.22 47.34 35.2 47.24 35.23L47.23 35.32C47.31 35.37 49.73 35.36 50 35.34L49.98 35.22L49.31 35.22L49.31 29.55L49.99 29.54L49.98 29.41L47.94 29.41C47.87 29.54 47.4 31.07 47.31 31.35C47.23 31.6 46.75 33.21 46.69 33.28C46.63 33.2 46.08 31.59 45.99 31.34Z" fill="#353535" fill-opacity="1.000000" fill-rule="evenodd"/>
	<path id="Vector" d="M3.81 29.54C3.99 29.53 5.03 29.52 5.12 29.55C5.2 29.6 5.45 30.35 5.5 30.48C5.63 30.8 5.74 31.12 5.87 31.44C5.96 31.66 5.88 31.76 5.81 31.97C5.73 32.19 5.34 33.4 5.28 33.43L4.54 31.5C4.44 31.25 3.8 29.66 3.81 29.54ZM8.22 33.37L8.18 33.44C8.12 33.42 8.13 33.43 8.1 33.36C8.07 33.14 6.67 29.74 6.67 29.54C6.82 29.53 7.1 29.58 7.21 29.52C7.21 29.39 7.24 29.42 6.93 29.42C6.17 29.42 1.77 29.39 1.59 29.43C1.6 29.55 1.59 29.54 1.73 29.54C2.27 29.54 2.25 29.47 2.36 29.74L2.58 30.31C2.68 30.57 2.77 30.82 2.87 31.08C3.06 31.59 3.25 32.09 3.45 32.6L4.48 35.28C4.5 35.35 4.53 35.41 4.55 35.47C4.58 35.55 4.59 35.57 4.7 35.55C4.76 35.46 5.55 33.07 5.67 32.74C5.72 32.59 5.93 31.9 5.99 31.82C6.1 31.91 7.32 35.39 7.46 35.56C7.61 35.57 7.59 35.5 7.68 35.23C8.21 33.73 8.73 32.16 9.25 30.65C9.35 30.34 9.42 30.08 9.59 29.88C9.88 29.54 10.21 29.58 10.32 29.52L10.31 29.43C10.18 29.4 8.92 29.41 8.82 29.44C8.84 29.66 9 29.44 9.21 29.75C9.33 29.92 9.33 30.08 9.25 30.3C9.13 30.65 9.02 30.97 8.9 31.32C8.82 31.55 8.2 33.29 8.22 33.37Z" fill="#EFA35A" fill-opacity="1.000000" fill-rule="evenodd"/>
	<path id="Vector" d="M28.75 35.21L28.75 29.55C28.97 29.52 29.58 29.54 29.77 29.6C30.02 29.7 30.23 29.92 30.34 30.15C30.52 30.53 30.45 31.85 30.45 32.36C30.45 32.75 30.45 33.14 30.45 33.53C30.45 33.91 30.49 34.26 30.35 34.59C30.25 34.82 30.03 35.05 29.79 35.15C29.59 35.23 28.99 35.25 28.75 35.21ZM28.67 29.41C28.41 29.41 26.76 29.39 26.67 29.43L26.66 29.52C26.79 29.6 27.18 29.53 27.36 29.55L27.36 35.21C27.18 35.24 26.79 35.19 26.66 35.23L26.66 35.32C26.75 35.38 28.44 35.34 28.69 35.34C29.33 35.35 29.94 35.39 30.49 35.12C30.62 35.06 30.72 34.99 30.83 34.92C30.91 34.87 31.07 34.74 31.12 34.69L31.36 34.4C31.75 33.87 31.98 33.11 31.98 32.36C31.97 31.55 31.62 30.53 31.09 30.05C30.34 29.37 29.65 29.41 28.67 29.41Z" fill="#353535" fill-opacity="1.000000" fill-rule="evenodd"/>
	<path id="Vector" d="M37.63 29.44C38.18 29.36 38.63 29.8 38.73 30.26C38.82 30.65 38.77 31.77 38.77 32.23C38.77 32.64 38.78 33.96 38.76 34.26C38.66 35.6 37.01 35.67 36.74 34.5C36.66 34.17 36.71 32.94 36.71 32.52C36.71 31.85 36.69 31.14 36.71 30.48C36.72 30.34 36.75 30.19 36.8 30.07C36.87 29.88 37.08 29.65 37.25 29.56C37.37 29.49 37.48 29.46 37.63 29.44ZM40.32 32.52C40.35 32.15 40.26 31.6 40.16 31.26C39.98 30.67 39.75 30.28 39.36 29.91C38.41 29.01 36.72 29.13 35.91 30.11C35.87 30.15 35.86 30.16 35.82 30.21C35.79 30.25 35.79 30.26 35.75 30.31C34.92 31.44 34.96 33.31 35.77 34.47C36.64 35.72 38.6 35.79 39.57 34.65C39.67 34.52 39.77 34.38 39.86 34.22C40.19 33.61 40.26 33.23 40.32 32.52Z" fill="#353535" fill-opacity="1.000000" fill-rule="evenodd"/>
	<path id="Vector" d="M11.73 12.87C11.67 13.01 11.71 14.32 11.71 14.57C11.71 15.14 11.69 15.74 11.71 16.31L15.18 16.31L15.17 12.4L15.06 12.42C14.93 12.41 13.6 12.6 13.37 12.64C13.1 12.68 12.82 12.72 12.54 12.75C12.31 12.79 11.94 12.82 11.73 12.87Z" fill="#353535" fill-opacity="1.000000" fill-rule="evenodd"/>
	<path id="Vector" d="M11.72 20.27L15.18 20.62L15.17 16.85L11.71 16.85L11.72 20.27Z" fill="#353535" fill-opacity="1.000000" fill-rule="evenodd"/>
	<path id="Vector" d="M7.47 19.83L11.07 20.21L11.08 16.85L7.46 16.85L7.47 19.83Z" fill="#353535" fill-opacity="1.000000" fill-rule="evenodd"/>
	<path id="Vector" d="M7.45 16.32L11.09 16.31L11.08 12.96L7.45 13.47L7.45 16.32Z" fill="#353535" fill-opacity="1.000000" fill-rule="evenodd"/>
	<path id="Vector" d="M21.99 29.45C21.99 29.57 22.01 29.54 22.12 29.55C22.73 29.62 22.66 30.13 22.66 30.61C22.66 31.19 22.7 31.91 22.66 32.47C22.59 32.44 22.07 31.49 21.98 31.35C21.76 30.97 21.55 30.6 21.32 30.21C20.78 29.27 20.99 29.42 20.32 29.42C20.06 29.42 18.74 29.39 18.62 29.44C18.63 29.55 18.62 29.54 18.74 29.54C18.86 29.54 19.25 29.51 19.28 29.56C19.32 29.61 19.3 33.78 19.3 34.42C19.29 35.48 18.61 35.02 18.63 35.32C18.71 35.36 19.97 35.36 20.06 35.33C20.08 35.27 20.08 35.32 20.07 35.23C19.79 35.11 19.41 35.31 19.41 34.4L19.41 29.81C19.49 29.84 19.44 29.79 19.5 29.89L22.5 35.06C22.61 35.25 22.64 35.36 22.76 35.34C22.77 35.31 22.76 35.33 22.77 35.28L22.78 35.13C22.76 33.57 22.78 31.93 22.77 30.37C22.77 30.11 22.79 29.88 22.94 29.72C23.01 29.64 23.08 29.61 23.19 29.58C23.44 29.51 23.44 29.61 23.45 29.44C23.37 29.41 22.08 29.38 21.99 29.45Z" fill="#EFA35A" fill-opacity="1.000000" fill-rule="evenodd"/>
	<path id="Vector" d="M15.52 29.54C15.62 29.54 15.76 29.56 15.83 29.52C15.82 29.39 15.81 29.42 15.67 29.42C14.88 29.43 13.78 29.38 13.06 29.44C13.07 29.57 13.09 29.54 13.24 29.54C13.81 29.53 13.74 29.49 13.74 29.76C13.74 31.57 13.76 33.41 13.74 35.22L13.48 35.22C13.34 35.22 13.04 35.19 13.06 35.29C13.08 35.37 13.19 35.34 13.28 35.34C13.99 35.34 15.21 35.38 15.81 35.33C15.84 35.27 15.83 35.33 15.82 35.24C15.67 35.19 15.33 35.25 15.13 35.21L15.13 29.98C15.13 29.9 15.1 29.57 15.17 29.55C15.17 29.55 15.18 29.55 15.18 29.55L15.24 29.54C15.26 29.54 15.31 29.54 15.34 29.54C15.4 29.54 15.46 29.54 15.52 29.54Z" fill="#EFA359" fill-opacity="1.000000" fill-rule="evenodd"/>
	<path id="Vector" d="M41.17 19.27L41.18 16.64L38.2 16.64L38.2 19.73L41.17 19.27Z" fill="#353535" fill-opacity="1.000000" fill-rule="evenodd"/>
	<path id="Vector" d="M38.2 16.12L41.18 16.13C41.16 15.72 41.22 13.72 41.16 13.51L38.2 13.06L38.2 16.12Z" fill="#353535" fill-opacity="1.000000" fill-rule="evenodd"/>
	<path id="Vector" d="M44.44 18.76L44.44 16.64L41.67 16.64L41.67 19.19L44.44 18.76Z" fill="#353535" fill-opacity="1.000000" fill-rule="evenodd"/>
	<path id="Vector" d="M41.67 16.12L44.44 16.13C44.43 15.79 44.48 14.18 44.43 14.01L41.67 13.59L41.67 16.12Z" fill="#353535" fill-opacity="1.000000" fill-rule="evenodd"/>
	<path id="Vector" d="M10.73 45.25C10.69 45.36 10.68 45.27 10.68 45.27C10.62 45.11 10.26 44.1 10.19 44.03L9.98 44.03C9.95 44.14 9.95 45.5 9.98 45.61L10.13 45.61L10.13 44.33C10.23 44.45 10.56 45.51 10.66 45.62C10.77 45.61 10.74 45.61 10.78 45.5L10.98 44.99C11.06 44.76 11.15 44.55 11.23 44.32C11.23 44.33 11.24 44.34 11.24 44.34C11.24 44.34 11.24 44.35 11.24 44.36C11.28 44.48 11.23 45.4 11.26 45.61L11.42 45.61L11.41 44.03L11.19 44.03C11.13 44.11 10.73 45.17 10.73 45.25Z" fill="#353535" fill-opacity="1.000000" fill-rule="evenodd"/>
	<path id="Vector" d="M31.52 44.19L32.1 44.19L32.1 45.45L31.33 45.45C31.39 45.25 31.46 45.16 31.49 44.89C31.52 44.65 31.51 44.43 31.52 44.19ZM31.14 45.61L32.28 45.62L32.28 46L32.43 45.98L32.43 45.46L32.26 45.44L32.25 44.03L31.36 44.03C31.32 44.24 31.37 44.63 31.32 44.9C31.3 45.03 31.27 45.14 31.22 45.25C31.03 45.71 30.93 45.11 30.98 45.99L31.13 45.99L31.14 45.61Z" fill="#353535" fill-opacity="1.000000" fill-rule="evenodd"/>
	<path id="Vector" d="M5.8 44.19L6.39 44.19L6.39 45.45L5.62 45.45C5.68 45.25 5.75 45.16 5.78 44.89C5.81 44.65 5.8 44.44 5.8 44.19ZM6.56 45.46C6.54 45.42 6.56 45.5 6.54 45.4L6.54 44.04C6.31 44.05 5.85 44.01 5.64 44.06C5.62 44.35 5.66 44.63 5.61 44.93C5.58 45.05 5.56 45.17 5.51 45.27C5.5 45.3 5.44 45.4 5.43 45.41C5.36 45.49 5.38 45.43 5.27 45.47L5.28 45.99L5.42 45.99L5.42 45.61L6.56 45.62L6.56 46L6.72 45.98L6.71 45.45L6.56 45.46Z" fill="#353535" fill-opacity="1.000000" fill-rule="evenodd"/>
	<path id="Vector" d="M15.98 44.2L16.56 44.19L16.56 45.45L15.79 45.45C15.85 45.25 15.92 45.16 15.95 44.9C15.98 44.65 15.97 44.45 15.98 44.2ZM15.8 44.63C15.81 44.81 15.78 45 15.72 45.15C15.6 45.52 15.55 45.43 15.44 45.47L15.44 45.99L15.6 45.98L15.6 45.61L16.73 45.61L16.74 45.99L16.89 45.99L16.88 45.45L16.73 45.45L16.73 44.05L15.83 44.04C15.83 44.14 15.86 44.59 15.8 44.63Z" fill="#353535" fill-opacity="1.000000" fill-rule="evenodd"/>
	<path id="Vector" d="M43.05 44.04C43.01 44.27 43.04 44.75 43.04 45.01C43.04 45.54 42.98 45.63 43.15 45.62C43.25 45.61 43.24 45.59 43.28 45.52C43.35 45.41 43.94 44.39 44.02 44.33C44.03 44.56 44.02 44.83 44.02 45.07C44.02 45.67 43.97 45.62 44.17 45.61C44.19 45.5 44.19 44.13 44.17 44.03C43.92 44.02 43.98 44.07 43.86 44.27C43.79 44.38 43.71 44.5 43.64 44.61C43.57 44.74 43.29 45.23 43.21 45.29C43.2 45.06 43.21 44.78 43.21 44.55C43.21 43.99 43.26 43.99 43.05 44.04Z" fill="#353535" fill-opacity="1.000000" fill-rule="evenodd"/>
	<path id="Vector" d="M25.12 44.92C25.04 43.97 26.2 43.89 26.3 44.72C26.34 45.12 26.11 45.44 25.81 45.49C25.43 45.54 25.15 45.27 25.12 44.92ZM24.95 44.96C25.08 45.97 26.58 45.86 26.47 44.71C26.43 44.26 26.06 43.92 25.59 44C25.18 44.06 24.88 44.45 24.95 44.96Z" fill="#353535" fill-opacity="1.000000" fill-rule="evenodd"/>
	<path id="Vector" d="M7.7 44.92C7.6 43.97 8.79 43.89 8.87 44.72C8.96 45.67 7.78 45.75 7.7 44.92ZM7.53 44.96C7.66 45.97 9.15 45.87 9.05 44.7C8.95 43.66 7.37 43.79 7.53 44.96Z" fill="#353535" fill-opacity="1.000000" fill-rule="evenodd"/>
	<path id="Vector" d="M33.31 45.61C33.54 45.64 33.52 45.55 33.63 45.38C33.73 45.22 34.22 44.36 34.28 44.33L34.28 45.61L34.44 45.61L34.43 44.03C34.33 44.02 34.28 44.01 34.22 44.09C34.09 44.29 33.54 45.27 33.46 45.31L33.45 44.03C33.24 44.01 33.3 44.07 33.31 44.31C33.31 44.63 33.29 45.39 33.31 45.61Z" fill="#353535" fill-opacity="1.000000" fill-rule="evenodd"/>
	<path id="Vector" d="M20.62 44.2C20.64 44.24 20.63 44.15 20.64 44.26L20.62 44.79C20.53 44.81 20.39 44.81 20.31 44.77C20.1 44.76 19.93 44.55 20.06 44.33C20.15 44.16 20.43 44.17 20.62 44.2ZM20.79 44.03C20.7 44.02 20.37 44.02 20.27 44.03C20.1 44.06 19.99 44.12 19.92 44.23C19.84 44.34 19.83 44.54 19.89 44.68C19.95 44.83 20.04 44.85 20.19 44.92C20.15 45.1 19.85 45.46 19.83 45.61C20.07 45.62 19.99 45.64 20.21 45.26C20.42 44.88 20.33 44.93 20.63 44.93C20.63 45.02 20.62 45.54 20.63 45.57C20.65 45.63 20.78 45.66 20.8 45.55C20.82 45.44 20.8 44.09 20.79 44.03Z" fill="#353535" fill-opacity="1.000000" fill-rule="evenodd"/>
	<path id="Vector" d="M39.32 44.66C39.31 44.85 39.3 45.04 39.25 45.22C39.18 45.47 39.11 45.44 38.89 45.46L38.88 45.61C39.57 45.75 39.47 44.76 39.49 44.19L40.05 44.2C40.05 44.49 40.01 45.39 40.06 45.61L40.22 45.61L40.22 44.05L39.34 44.04L39.34 44.5C39.34 44.52 39.34 44.58 39.34 44.59L39.32 44.66Z" fill="#353535" fill-opacity="1.000000" fill-rule="evenodd"/>
	<path id="Vector" d="M27.55 44.87C27.82 44.84 28.22 44.84 28.2 45.18C28.19 45.5 27.81 45.47 27.55 45.47L27.55 44.87ZM27.96 45.59C28.26 45.61 28.47 45.26 28.33 44.95C28.2 44.67 27.85 44.73 27.54 44.7L27.55 44.19C27.67 44.18 27.86 44.19 27.99 44.19C28.15 44.19 28.34 44.25 28.26 44.04C28.16 44 27.55 44.02 27.4 44.03L27.4 45.59C27.59 45.6 27.79 45.6 27.96 45.59Z" fill="#353535" fill-opacity="1.000000" fill-rule="evenodd"/>
	<path id="Vector" d="M12.64 45.04C12.66 44.93 12.9 44.31 12.95 44.27L13.24 45.03L12.64 45.04ZM12.24 45.61C12.44 45.63 12.41 45.62 12.47 45.46C12.61 45.11 12.47 45.19 13.32 45.21C13.37 45.33 13.41 45.52 13.49 45.61L13.64 45.61C13.64 45.53 13.07 44.11 13.01 44.03L12.88 44.03C12.82 44.13 12.25 45.53 12.24 45.61Z" fill="#353535" fill-opacity="1.000000" fill-rule="evenodd"/>
	<path id="Vector" d="M18.77 44.19C18.77 44.2 18.77 44.2 18.77 44.21L18.79 44.26C18.8 44.43 18.77 45.31 18.79 45.6L18.93 45.6L18.93 44.04C18.71 44.04 18.24 44.02 18.05 44.06C18.03 44.35 18.07 44.66 18.03 44.96C17.98 45.3 17.95 45.46 17.62 45.46L17.61 45.61C18.3 45.73 18.2 44.79 18.21 44.19L18.77 44.19Z" fill="#353535" fill-opacity="1.000000" fill-rule="evenodd"/>
	<path id="Vector" d="M37.39 45.44L37.39 44.87L38.1 44.87L38.09 44.71L37.39 44.71L37.39 44.19C37.55 44.19 37.71 44.19 37.87 44.19C38.03 44.19 38.21 44.25 38.14 44.04C38.04 44 37.41 44.02 37.26 44.03C37.2 44.15 37.23 45.37 37.23 45.6L38.16 45.6L38.16 45.47C38.03 45.46 37.9 45.47 37.77 45.47C37.61 45.47 37.46 45.49 37.39 45.44Z" fill="#353535" fill-opacity="1.000000" fill-rule="evenodd"/>
	<path id="Vector" d="M42.15 45.58L42.14 45.45L41.37 45.45L41.37 44.87L42.07 44.87L42.07 44.71L41.37 44.71L41.38 44.19C41.54 44.18 42 44.22 42.12 44.17L42.13 44.06C42.02 44.01 41.37 44.03 41.22 44.04L41.22 45.6C41.38 45.6 42.03 45.63 42.15 45.58Z" fill="#353535" fill-opacity="1.000000" fill-rule="evenodd"/>
	<path id="Vector" d="M22.93 45.61C23.13 45.64 23.09 45.6 23.09 45.4L23.09 44.19L23.87 44.19L23.88 45.61L24.01 45.61L24.01 44.04L22.93 44.05L22.93 45.61Z" fill="#353535" fill-opacity="1.000000" fill-rule="evenodd"/>
	<path id="Vector" d="M29.46 45.44L29.47 44.87L30.18 44.87L30.17 44.71L29.46 44.7L29.47 44.19L30.22 44.19L30.21 44.03L29.32 44.03L29.32 45.59L30.24 45.6L30.24 45.47L29.65 45.47C29.5 45.47 29.51 45.48 29.46 45.44Z" fill="#353535" fill-opacity="1.000000" fill-rule="evenodd"/>
	<path id="Vector" d="M35.76 44.19L35.76 45.61L35.91 45.61L35.92 44.19L36.4 44.19L36.39 44.03L35.38 44.03C35.32 44.03 35.3 44.01 35.27 44.06C35.25 44.09 35.26 44.16 35.28 44.17C35.31 44.21 35.68 44.19 35.76 44.19Z" fill="#353535" fill-opacity="1.000000" fill-rule="evenodd"/>
	<path id="Vector" d="M11.72 20.27L11.71 16.85L15.17 16.85L15.18 20.62C15.21 20.56 15.2 20.24 15.2 20.16C15.2 19.69 15.22 17.01 15.19 16.84C15.04 16.81 11.83 16.81 11.7 16.84C11.66 16.99 11.68 19.46 11.68 19.88C11.68 20.01 11.66 20.24 11.72 20.27Z" fill="#353535" fill-opacity="1.000000" fill-rule="evenodd"/>
	<path id="Vector" d="M7.47 19.83L7.46 16.85L11.08 16.85L11.07 20.21C11.11 20.15 11.1 20.09 11.09 20.01C11.09 19.49 11.12 17.02 11.08 16.84C10.95 16.81 7.6 16.81 7.45 16.84C7.41 17.05 7.45 19.1 7.44 19.68C7.44 19.87 7.44 19.82 7.47 19.83Z" fill="#353535" fill-opacity="1.000000" fill-rule="evenodd"/>
	<path id="Vector" d="M11.73 12.87C11.68 12.9 11.7 12.84 11.68 12.95C11.68 12.96 11.69 13.05 11.69 13.06C11.69 13.6 11.66 16.13 11.69 16.33L15.19 16.32C15.22 16.15 15.22 12.55 15.19 12.39C15.12 12.38 15.11 12.38 15.06 12.42L15.17 12.4L15.18 16.31L11.71 16.31C11.69 15.74 11.71 15.14 11.71 14.57C11.71 14.32 11.67 13.01 11.73 12.87Z" fill="#353535" fill-opacity="1.000000" fill-rule="evenodd"/>
	<path id="Vector" d="M41.17 19.27C41.2 19.23 41.18 19.31 41.2 19.2L41.2 18.93C41.2 18.48 41.22 16.82 41.19 16.62C41.02 16.59 38.82 16.62 38.36 16.61C38.29 16.61 38.23 16.59 38.2 16.64L41.18 16.64L41.17 19.27Z" fill="#353535" fill-opacity="1.000000" fill-rule="evenodd"/>
	<path id="Vector" d="M44.44 18.76C44.47 18.72 44.45 18.77 44.46 18.69L44.46 18.5C44.46 18.12 44.48 16.79 44.45 16.62C44.31 16.59 42.63 16.61 42.34 16.61C42.27 16.61 41.71 16.58 41.67 16.64L44.44 16.64L44.44 18.76Z" fill="#353535" fill-opacity="1.000000" fill-rule="evenodd"/>
	<path id="Vector" d="M38.2 16.12C38.24 16.17 38.23 16.15 38.38 16.15C38.83 16.15 41.03 16.17 41.19 16.14C41.22 15.95 41.2 14.53 41.2 14.14C41.2 13.99 41.23 13.54 41.16 13.51C41.22 13.72 41.17 15.72 41.18 16.13L38.2 16.12Z" fill="#353535" fill-opacity="1.000000" fill-rule="evenodd"/>
	<path id="Vector" d="M41.67 16.12C41.7 16.16 41.65 16.15 41.75 16.15C42.01 16.17 44.41 16.15 44.45 16.14C44.48 15.98 44.46 14.62 44.46 14.25C44.46 14.16 44.49 14.04 44.43 14.01C44.48 14.18 44.43 15.79 44.44 16.13L41.67 16.12Z" fill="#353535" fill-opacity="1.000000" fill-rule="evenodd"/>
	<path id="Vector" d="M43.64 43.76C43.49 43.78 43.45 43.67 43.41 43.58C43.27 43.59 43.28 43.64 43.35 43.77C43.47 43.97 43.92 43.95 43.91 43.59C43.72 43.57 43.83 43.73 43.64 43.76Z" fill="#353535" fill-opacity="1.000000" fill-rule="evenodd"/>
	<path id="Vector" d="M22.93 45.61L22.93 44.04L24.01 44.04L24.01 45.61C24.03 45.58 24.02 45.64 24.03 45.56L24.03 45.4C24.03 45.1 24.05 44.18 24.02 44.02L22.92 44.03C22.89 44.21 22.91 44.63 22.91 44.83C22.91 44.99 22.88 45.51 22.93 45.61Z" fill="#353535" fill-opacity="1.000000" fill-rule="evenodd"/>
	<path id="Vector" d="M18.77 44.19L18.77 45.62L18.94 45.61C18.96 45.49 18.96 44.14 18.94 44.03C18.84 44.01 18.42 44.02 18.26 44.02C18.23 44.02 18.16 44.02 18.13 44.02C18.04 44.03 18.08 44.01 18.05 44.05C18.24 44.02 18.71 44.04 18.93 44.04L18.93 45.6L18.79 45.6C18.77 45.31 18.8 44.43 18.79 44.26L18.77 44.21C18.77 44.2 18.77 44.2 18.77 44.19Z" fill="#353535" fill-opacity="1.000000" fill-rule="evenodd"/>
	<path id="Vector" d="M29.46 45.44C29.51 45.48 29.5 45.47 29.64 45.47L30.24 45.47L30.24 45.6L29.32 45.6L29.32 44.03C29.31 44.06 29.31 44.01 29.3 44.09C29.28 44.22 29.3 45.6 29.31 45.62L30.25 45.61L30.25 45.45L29.46 45.44Z" fill="#353535" fill-opacity="1.000000" fill-rule="evenodd"/>
	<path id="Vector" d="M37.39 45.44C37.46 45.49 37.61 45.47 37.77 45.47C37.9 45.47 38.03 45.46 38.16 45.47L38.16 45.6L37.23 45.6C37.23 45.37 37.2 44.15 37.26 44.03C37.22 44.05 37.21 43.98 37.22 44.22C37.22 44.28 37.22 44.35 37.22 44.41C37.22 44.55 37.22 44.68 37.22 44.81C37.22 45.03 37.2 45.41 37.22 45.62L38.17 45.61L38.17 45.44L37.39 45.44Z" fill="#353535" fill-opacity="1.000000" fill-rule="evenodd"/>
	<path id="Vector" d="M42.15 45.58C42.04 45.63 41.39 45.6 41.22 45.6L41.22 44.04C41.38 44.03 42.02 44.01 42.13 44.06C42.1 44.01 42.15 44.02 42.04 44.02L41.2 44.03L41.21 45.61C41.33 45.63 41.55 45.62 41.69 45.62C41.83 45.62 42.13 45.65 42.15 45.58Z" fill="#353535" fill-opacity="1.000000" fill-rule="evenodd"/>
	<path id="Vector" d="M27.96 45.59C27.78 45.6 27.58 45.61 27.4 45.59L27.4 44.03C27.35 44.14 27.38 45.57 27.39 45.61C27.47 45.62 27.94 45.65 27.96 45.59Z" fill="#353535" fill-opacity="1.000000" fill-rule="evenodd"/>
	<path id="Vector" d="M6.56 45.46L6.55 44.03C6.43 44 6.22 44.02 6.09 44.02C6.01 44.02 5.93 44.02 5.85 44.02C5.82 44.02 5.75 44.02 5.73 44.02C5.63 44.03 5.67 44.01 5.64 44.06C5.85 44.01 6.31 44.05 6.54 44.04L6.54 45.4C6.56 45.5 6.54 45.42 6.56 45.46Z" fill="#353535" fill-opacity="1.000000" fill-rule="evenodd"/>
	<path id="Vector" d="M39.32 44.66L39.34 44.59C39.34 44.58 39.34 44.52 39.34 44.5L39.34 44.04L40.22 44.05C40.17 44 40.09 44.02 39.99 44.02C39.83 44.02 39.43 44.01 39.32 44.03L39.32 44.66Z" fill="#353535" fill-opacity="1.000000" fill-rule="evenodd"/>
	<path id="Vector" d="M15.8 44.63C15.85 44.59 15.83 44.14 15.83 44.04L16.72 44.05C16.69 44.01 16.74 44.04 16.68 44.02C16.68 44.02 16.63 44.02 16.63 44.02L15.81 44.03L15.8 44.63Z" fill="#353535" fill-opacity="1.000000" fill-rule="evenodd"/>
	<path id="Vector" d="M20.31 44.77C20.39 44.81 20.53 44.82 20.62 44.79L20.64 44.26C20.63 44.15 20.65 44.24 20.62 44.2L20.62 44.77L20.31 44.77Z" fill="#353535" fill-opacity="1.000000" fill-rule="evenodd"/>
	<path id="Vector" d="M8.22 33.37C8.2 33.38 8.18 33.4 8.18 33.4C8.17 33.39 8.16 33.4 8.15 33.41L8.1 33.36C8.13 33.43 8.12 33.42 8.18 33.45L8.22 33.37Z" fill="#E7B888" fill-opacity="1.000000" fill-rule="evenodd"/>
	<path id="Vector" d="M49.81 16.79L49.78 16.8C49.8 16.83 49.73 16.84 49.81 16.83C49.88 16.73 49.81 16.79 49.81 16.79Z" fill="#353535" fill-opacity="1.000000" fill-rule="evenodd"/>
	<path id="Vector" d="M0.05 16.65L0.04 16.64C-0.01 16.67 0.01 16.63 0 16.7C0.05 16.68 0.02 16.7 0.05 16.65Z" fill="#353535" fill-opacity="1.000000" fill-rule="evenodd"/>
	<path id="Vector" d="M10.68 45.27C10.68 45.27 10.7 45.36 10.73 45.25L10.68 45.27Z" fill="#353535" fill-opacity="1.000000" fill-rule="evenodd"/>
</svg>
