<svg width="50.000000" height="45.000000" viewBox="0 0 50 45" fill="none" xmlns="http://www.w3.org/2000/svg" xmlns:xlink="http://www.w3.org/1999/xlink">
	<desc>
			Created with Pixso.
	</desc>
	<defs/>
	<path id="Vector" d="M0.04 16.27L0.05 16.28C0.19 16.21 0.3 16.04 0.41 15.92C0.67 15.67 1.2 15.16 1.42 14.92C1.62 14.7 1.87 14.48 2.05 14.29L2.4 13.92C2.44 13.88 2.47 13.87 2.5 13.83C2.54 13.79 2.51 13.82 2.54 13.79C2.58 13.75 2.54 13.78 2.58 13.74C2.66 13.67 2.68 13.64 2.76 13.56L3.84 12.47C3.91 12.4 3.95 12.36 4.01 12.29L5.73 10.57C5.77 10.53 5.76 10.53 5.81 10.49L6.35 9.94C6.52 9.76 6.7 9.56 6.89 9.4L7.24 9.03C7.31 8.96 7.36 8.92 7.43 8.85L7.88 8.4C7.9 8.37 7.93 8.34 7.96 8.31L8.32 7.94C8.39 7.87 8.44 7.84 8.5 7.77L9.93 6.31C9.97 6.27 10 6.26 10.03 6.22C10.23 6 10.48 5.78 10.66 5.59L11.37 4.86C11.43 4.8 11.49 4.75 11.54 4.68C11.65 4.73 13.35 6.61 13.59 6.86C13.93 7.22 14.26 7.58 14.61 7.95L15.61 9.04C15.77 9.23 15.96 9.41 16.13 9.59L17.14 10.67C17.83 11.39 18.47 12.14 19.16 12.86C19.33 13.04 19.5 13.22 19.67 13.39C19.77 13.49 19.83 13.58 19.93 13.68C20.02 13.77 20.09 13.86 20.18 13.95C20.36 14.12 20.54 14.31 20.68 14.49C20.83 14.67 21.02 14.85 21.19 15.03C21.37 15.22 21.52 15.39 21.69 15.58C21.96 15.85 22.5 16.46 22.71 16.67C22.9 16.84 23.06 17.03 23.21 17.22C23.34 17.36 23.48 17.48 23.6 17.62C23.65 17.67 23.67 17.7 23.72 17.76C23.87 17.91 24.33 18.44 24.49 18.58C24.57 18.65 24.85 18.61 24.97 18.61L29.07 18.61C29.61 18.61 30.65 18.64 31.12 18.61L32.42 16.9C32.54 16.75 32.64 16.62 32.75 16.47L33.4 15.61C33.51 15.47 33.61 15.35 33.72 15.2L39.26 7.96C39.32 7.87 39.36 7.83 39.42 7.75C39.79 7.29 40.2 6.74 40.56 6.26C40.67 6.11 40.77 5.99 40.89 5.83L41.38 5.19C41.42 5.13 41.47 5.04 41.54 4.99C41.72 5.17 42.4 6.18 42.59 6.43C42.95 6.9 43.27 7.39 43.62 7.86C44.15 8.56 44.64 9.29 45.16 10.01L47.22 12.86C47.5 13.25 49.75 16.32 49.78 16.43L49.81 16.42C49.66 16.08 49.49 15.73 49.32 15.39L42.93 2.04C42.69 1.55 42.13 0.43 41.96 0L14.95 3.47L14.02 2.59C13.98 2.55 13.94 2.52 13.9 2.48L12.87 1.5C12.69 1.35 12.49 1.12 12.31 0.96L12.08 0.74C12.04 0.7 12.01 0.68 11.96 0.64L11.51 0.21C11.46 0.15 11.34 0.03 11.28 0.01L10.22 1.53C10.1 1.69 9.97 1.87 9.86 2.04L9.16 3.06C8.92 3.39 8.69 3.73 8.46 4.08C7.99 4.77 7.52 5.43 7.05 6.11C6.81 6.46 6.57 6.79 6.35 7.13C5.93 7.77 5.39 8.49 4.95 9.15C4.55 9.76 3.96 10.6 3.54 11.19C2.61 12.53 1.63 13.93 0.72 15.26C0.63 15.41 0.06 16.19 0.04 16.27Z" fill="#353535" fill-opacity="1.000000" fill-rule="evenodd"/>
	<path id="Vector" d="M45.99 30.66C45.89 30.41 45.35 28.87 45.29 28.78L43.18 28.78L43.18 28.9L43.84 28.91C43.86 29.08 43.84 33.22 43.84 33.61C43.85 33.88 43.86 34.09 43.71 34.26C43.5 34.48 43.3 34.4 43.18 34.47L43.18 34.57C43.4 34.58 44.56 34.62 44.67 34.55L44.67 34.46C44.13 34.4 43.98 34.29 43.98 33.7L43.98 29.27C44.08 29.45 44.89 31.76 44.99 32.03C45.16 32.49 45.32 32.95 45.49 33.41C45.66 33.86 45.84 34.34 45.99 34.79L46.11 34.79C46.28 34.35 46.42 33.84 46.56 33.4C46.71 32.93 46.86 32.48 47.01 32.02L47.89 29.28L47.92 34.45C47.78 34.46 47.34 34.43 47.24 34.47L47.23 34.55C47.31 34.6 49.73 34.59 50 34.57L49.98 34.45L49.31 34.45L49.31 28.9L49.99 28.9L49.98 28.78L47.94 28.78C47.87 28.89 47.4 30.39 47.31 30.66C47.23 30.91 46.75 32.48 46.69 32.56C46.63 32.48 46.08 30.9 45.99 30.66Z" fill="#353535" fill-opacity="1.000000" fill-rule="evenodd"/>
	<path id="Vector" d="M3.81 28.9C3.99 28.89 5.03 28.88 5.12 28.91C5.2 28.95 5.45 29.69 5.5 29.82C5.63 30.13 5.74 30.45 5.87 30.76C5.96 30.97 5.88 31.07 5.81 31.27C5.73 31.49 5.34 32.67 5.28 32.71L4.54 30.81C4.44 30.57 3.8 29.02 3.81 28.9ZM8.22 32.65L8.18 32.72C8.12 32.69 8.13 32.7 8.1 32.63C8.07 32.42 6.67 29.09 6.67 28.9C6.82 28.89 7.1 28.93 7.21 28.88C7.21 28.75 7.24 28.78 6.93 28.78C6.17 28.78 1.77 28.75 1.59 28.79C1.6 28.91 1.59 28.9 1.73 28.9C2.27 28.89 2.25 28.83 2.36 29.09L2.58 29.65C2.68 29.91 2.77 30.15 2.87 30.4C3.06 30.9 3.25 31.39 3.45 31.89L4.48 34.51C4.5 34.58 4.53 34.63 4.55 34.7C4.58 34.78 4.59 34.8 4.7 34.78C4.76 34.68 5.55 32.35 5.67 32.03C5.72 31.88 5.93 31.21 5.99 31.13C6.1 31.22 7.32 34.62 7.46 34.78C7.61 34.79 7.59 34.73 7.68 34.46C8.21 33 8.73 31.46 9.25 29.98C9.35 29.68 9.42 29.43 9.59 29.23C9.88 28.9 10.21 28.94 10.32 28.88L10.31 28.79C10.18 28.76 8.92 28.77 8.82 28.8C8.84 29.02 9 28.8 9.21 29.1C9.33 29.27 9.33 29.42 9.25 29.64C9.13 29.98 9.02 30.3 8.9 30.64C8.82 30.86 8.2 32.57 8.22 32.65Z" fill="#EFA35A" fill-opacity="1.000000" fill-rule="evenodd"/>
	<path id="Vector" d="M28.75 34.44L28.75 28.91C28.97 28.88 29.58 28.89 29.77 28.96C30.02 29.05 30.23 29.27 30.34 29.49C30.52 29.86 30.45 31.16 30.45 31.66C30.45 32.04 30.45 32.42 30.45 32.8C30.45 33.17 30.49 33.51 30.35 33.84C30.25 34.06 30.03 34.29 29.79 34.38C29.59 34.46 28.99 34.48 28.75 34.44ZM28.67 28.77C28.41 28.78 26.76 28.75 26.67 28.79L26.66 28.87C26.79 28.96 27.18 28.89 27.36 28.91L27.36 34.44C27.18 34.47 26.79 34.42 26.66 34.47L26.66 34.55C26.75 34.61 28.44 34.57 28.69 34.58C29.33 34.58 29.94 34.62 30.49 34.35C30.61 34.29 30.72 34.23 30.83 34.16C30.91 34.11 31.07 33.99 31.12 33.93L31.36 33.65C31.75 33.13 31.98 32.39 31.98 31.66C31.97 30.86 31.62 29.87 31.09 29.4C30.34 28.73 29.65 28.77 28.67 28.77Z" fill="#353535" fill-opacity="1.000000" fill-rule="evenodd"/>
	<path id="Vector" d="M37.63 28.8C38.18 28.72 38.63 29.15 38.73 29.6C38.82 29.98 38.77 31.07 38.77 31.53C38.77 31.93 38.78 33.23 38.76 33.52C38.66 34.82 37.01 34.9 36.74 33.75C36.66 33.42 36.71 32.23 36.71 31.81C36.71 31.16 36.69 30.47 36.71 29.82C36.72 29.68 36.75 29.54 36.8 29.42C36.87 29.23 37.08 29.01 37.25 28.91C37.37 28.85 37.48 28.82 37.63 28.8ZM40.32 31.81C40.35 31.45 40.26 30.91 40.16 30.58C39.98 30 39.75 29.62 39.36 29.26C38.41 28.38 36.72 28.5 35.91 29.45C35.87 29.5 35.86 29.51 35.82 29.55C35.8 29.59 35.79 29.6 35.75 29.65C34.92 30.76 34.96 32.59 35.77 33.72C36.64 34.94 38.6 35.01 39.57 33.89C39.67 33.77 39.77 33.64 39.86 33.48C40.19 32.87 40.26 32.51 40.32 31.81Z" fill="#353535" fill-opacity="1.000000" fill-rule="evenodd"/>
	<path id="Vector" d="M11.73 12.59C11.67 12.73 11.71 14 11.71 14.26C11.71 14.81 11.69 15.4 11.71 15.95L15.18 15.95L15.17 12.13L15.06 12.15C14.93 12.14 13.6 12.33 13.37 12.36C13.1 12.41 12.82 12.44 12.54 12.48C12.31 12.51 11.94 12.54 11.73 12.59Z" fill="#353535" fill-opacity="1.000000" fill-rule="evenodd"/>
	<path id="Vector" d="M11.72 19.83L15.18 20.17L15.17 16.49L11.71 16.49L11.72 19.83Z" fill="#353535" fill-opacity="1.000000" fill-rule="evenodd"/>
	<path id="Vector" d="M7.47 19.4L11.07 19.77L11.08 16.48L7.46 16.49L7.47 19.4Z" fill="#353535" fill-opacity="1.000000" fill-rule="evenodd"/>
	<path id="Vector" d="M7.45 15.96L11.09 15.96L11.08 12.68L7.45 13.18L7.45 15.96Z" fill="#353535" fill-opacity="1.000000" fill-rule="evenodd"/>
	<path id="Vector" d="M21.99 28.81C21.99 28.93 22.01 28.9 22.12 28.91C22.73 28.98 22.66 29.48 22.66 29.95C22.66 30.52 22.7 31.21 22.66 31.76C22.59 31.73 22.07 30.81 21.98 30.66C21.76 30.29 21.55 29.93 21.32 29.56C20.78 28.63 20.99 28.78 20.32 28.78C20.06 28.78 18.74 28.75 18.62 28.8C18.63 28.91 18.62 28.9 18.74 28.9C18.86 28.9 19.25 28.87 19.28 28.92C19.32 28.96 19.3 33.04 19.3 33.68C19.29 34.71 18.61 34.26 18.63 34.55C18.71 34.59 19.97 34.59 20.06 34.56C20.08 34.5 20.08 34.55 20.07 34.47C19.79 34.34 19.41 34.54 19.41 33.65L19.41 29.16C19.49 29.19 19.44 29.14 19.5 29.24L22.5 34.3C22.61 34.49 22.64 34.59 22.76 34.57C22.77 34.54 22.76 34.56 22.77 34.51L22.78 34.36C22.76 32.84 22.78 31.24 22.77 29.71C22.77 29.46 22.79 29.23 22.94 29.08C23.01 29 23.08 28.96 23.19 28.93C23.44 28.86 23.44 28.97 23.45 28.8C23.37 28.77 22.08 28.74 21.99 28.81Z" fill="#EFA35A" fill-opacity="1.000000" fill-rule="evenodd"/>
	<path id="Vector" d="M15.52 28.9C15.62 28.9 15.76 28.91 15.83 28.88C15.82 28.75 15.81 28.78 15.67 28.78C14.88 28.79 13.78 28.74 13.06 28.8C13.07 28.93 13.09 28.9 13.24 28.9C13.81 28.88 13.74 28.85 13.74 29.11C13.74 30.89 13.76 32.68 13.74 34.45L13.48 34.46C13.34 34.46 13.04 34.42 13.06 34.53C13.08 34.6 13.19 34.57 13.28 34.57C13.99 34.57 15.21 34.6 15.81 34.56C15.84 34.51 15.83 34.56 15.82 34.47C15.67 34.42 15.33 34.48 15.13 34.45L15.13 29.33C15.13 29.25 15.1 28.93 15.17 28.91C15.17 28.91 15.18 28.91 15.18 28.9L15.24 28.9C15.26 28.89 15.31 28.89 15.34 28.9C15.4 28.9 15.46 28.9 15.52 28.9Z" fill="#EFA359" fill-opacity="1.000000" fill-rule="evenodd"/>
	<path id="Vector" d="M41.17 18.85L41.18 16.27L38.2 16.28L38.2 19.3L41.17 18.85Z" fill="#353535" fill-opacity="1.000000" fill-rule="evenodd"/>
	<path id="Vector" d="M38.2 15.77L41.18 15.78C41.16 15.38 41.22 13.42 41.16 13.22L38.2 12.77L38.2 15.77Z" fill="#353535" fill-opacity="1.000000" fill-rule="evenodd"/>
	<path id="Vector" d="M44.44 18.35L44.44 16.27L41.67 16.28L41.67 18.78L44.44 18.35Z" fill="#353535" fill-opacity="1.000000" fill-rule="evenodd"/>
	<path id="Vector" d="M41.67 15.77L44.44 15.78C44.43 15.45 44.48 13.87 44.43 13.7L41.67 13.29L41.67 15.77Z" fill="#353535" fill-opacity="1.000000" fill-rule="evenodd"/>
	<path id="Vector" d="M10.73 44.27C10.69 44.37 10.68 44.29 10.68 44.29C10.62 44.13 10.26 43.14 10.19 43.07L9.98 43.07C9.95 43.18 9.95 44.51 9.98 44.62L10.13 44.61L10.13 43.36C10.23 43.48 10.56 44.52 10.66 44.62C10.77 44.62 10.74 44.62 10.78 44.52L10.98 44.02C11.06 43.79 11.15 43.58 11.23 43.36C11.23 43.37 11.24 43.37 11.24 43.38C11.24 43.38 11.24 43.39 11.24 43.39C11.28 43.51 11.23 44.41 11.26 44.62L11.42 44.62L11.41 43.07L11.19 43.08C11.13 43.15 10.73 44.18 10.73 44.27Z" fill="#353535" fill-opacity="1.000000" fill-rule="evenodd"/>
	<path id="Vector" d="M31.52 43.23L32.1 43.23L32.1 44.46L31.33 44.46C31.39 44.26 31.46 44.18 31.49 43.92C31.52 43.68 31.51 43.47 31.52 43.23ZM31.14 44.62L32.28 44.63L32.28 45L32.43 44.98L32.43 44.47L32.26 44.46L32.25 43.07L31.36 43.07C31.32 43.28 31.37 43.66 31.32 43.92C31.3 44.05 31.27 44.16 31.22 44.27C31.03 44.72 30.93 44.13 30.98 44.99L31.13 44.99L31.14 44.62Z" fill="#353535" fill-opacity="1.000000" fill-rule="evenodd"/>
	<path id="Vector" d="M5.8 43.23L6.39 43.23L6.39 44.46L5.62 44.46C5.68 44.27 5.75 44.18 5.78 43.92C5.81 43.68 5.8 43.47 5.8 43.23ZM6.56 44.47C6.54 44.43 6.56 44.51 6.54 44.41L6.54 43.08C6.31 43.09 5.85 43.06 5.64 43.1C5.62 43.39 5.66 43.66 5.61 43.95C5.58 44.07 5.56 44.19 5.51 44.29C5.5 44.31 5.44 44.41 5.43 44.42C5.36 44.5 5.38 44.44 5.27 44.48L5.28 44.99L5.42 44.99L5.42 44.62L6.56 44.63L6.56 45L6.72 44.98L6.71 44.47L6.56 44.47Z" fill="#353535" fill-opacity="1.000000" fill-rule="evenodd"/>
	<path id="Vector" d="M15.98 43.24L16.56 43.23L16.56 44.46L15.79 44.46C15.85 44.27 15.92 44.17 15.95 43.92C15.98 43.67 15.97 43.48 15.98 43.24ZM15.8 43.66C15.81 43.83 15.78 44.02 15.72 44.17C15.6 44.53 15.55 44.44 15.44 44.48L15.44 44.99L15.6 44.98L15.6 44.62L16.73 44.62L16.74 44.99L16.89 44.99L16.88 44.46L16.73 44.46L16.73 43.09L15.83 43.09C15.83 43.18 15.86 43.62 15.8 43.66Z" fill="#353535" fill-opacity="1.000000" fill-rule="evenodd"/>
	<path id="Vector" d="M43.05 43.08C43.01 43.3 43.04 43.78 43.04 44.03C43.04 44.54 42.98 44.64 43.15 44.62C43.25 44.62 43.24 44.6 43.28 44.53C43.35 44.42 43.94 43.42 44.02 43.36C44.03 43.6 44.02 43.86 44.02 44.09C44.02 44.68 43.97 44.63 44.17 44.62C44.19 44.51 44.19 43.17 44.17 43.07C43.92 43.06 43.98 43.11 43.86 43.31C43.79 43.42 43.71 43.53 43.64 43.64C43.57 43.76 43.29 44.25 43.21 44.31C43.2 44.08 43.21 43.81 43.21 43.58C43.21 43.03 43.26 43.04 43.05 43.08Z" fill="#353535" fill-opacity="1.000000" fill-rule="evenodd"/>
	<path id="Vector" d="M25.12 43.94C25.04 43.01 26.2 42.93 26.3 43.75C26.34 44.13 26.11 44.45 25.81 44.5C25.43 44.55 25.15 44.28 25.12 43.94ZM24.95 43.99C25.08 44.97 26.58 44.86 26.47 43.73C26.43 43.3 26.06 42.97 25.58 43.04C25.18 43.1 24.88 43.48 24.95 43.99Z" fill="#353535" fill-opacity="1.000000" fill-rule="evenodd"/>
	<path id="Vector" d="M7.7 43.94C7.6 43.02 8.79 42.93 8.87 43.75C8.96 44.67 7.78 44.76 7.7 43.94ZM7.53 43.98C7.66 44.97 9.15 44.87 9.05 43.73C8.95 42.71 7.37 42.84 7.53 43.98Z" fill="#353535" fill-opacity="1.000000" fill-rule="evenodd"/>
	<path id="Vector" d="M33.31 44.62C33.54 44.64 33.52 44.56 33.63 44.4C33.73 44.24 34.22 43.4 34.28 43.37L34.28 44.62L34.44 44.62L34.43 43.07C34.33 43.06 34.28 43.05 34.22 43.13C34.09 43.33 33.54 44.28 33.46 44.33L33.45 43.07C33.24 43.06 33.3 43.12 33.31 43.34C33.31 43.66 33.29 44.4 33.31 44.62Z" fill="#353535" fill-opacity="1.000000" fill-rule="evenodd"/>
	<path id="Vector" d="M20.62 43.23C20.64 43.28 20.63 43.19 20.64 43.3L20.62 43.81C20.53 43.84 20.39 43.83 20.31 43.79C20.1 43.79 19.93 43.58 20.06 43.37C20.15 43.2 20.43 43.21 20.62 43.23ZM20.79 43.08C20.7 43.06 20.37 43.06 20.27 43.08C20.1 43.1 19.99 43.16 19.92 43.26C19.84 43.37 19.83 43.57 19.89 43.71C19.95 43.86 20.04 43.88 20.19 43.94C20.15 44.12 19.85 44.47 19.83 44.62C20.07 44.63 19.99 44.65 20.21 44.28C20.42 43.91 20.33 43.96 20.63 43.96C20.63 44.04 20.62 44.55 20.63 44.58C20.65 44.64 20.79 44.66 20.8 44.56C20.82 44.45 20.8 43.13 20.79 43.08Z" fill="#353535" fill-opacity="1.000000" fill-rule="evenodd"/>
	<path id="Vector" d="M39.32 43.69C39.31 43.88 39.3 44.06 39.25 44.24C39.18 44.48 39.11 44.45 38.89 44.48L38.88 44.62C39.57 44.76 39.47 43.79 39.49 43.23L40.05 43.24C40.05 43.52 40.01 44.41 40.06 44.62L40.22 44.62L40.22 43.09L39.34 43.08L39.34 43.54C39.34 43.55 39.34 43.61 39.34 43.62L39.32 43.69Z" fill="#353535" fill-opacity="1.000000" fill-rule="evenodd"/>
	<path id="Vector" d="M27.55 43.9C27.82 43.87 28.22 43.86 28.2 44.2C28.19 44.51 27.81 44.48 27.55 44.48L27.55 43.9ZM27.96 44.6C28.26 44.62 28.47 44.28 28.33 43.98C28.2 43.7 27.85 43.76 27.54 43.73L27.55 43.23C27.67 43.22 27.86 43.23 27.99 43.23C28.15 43.23 28.34 43.29 28.26 43.08C28.16 43.04 27.55 43.06 27.4 43.07L27.4 44.6C27.59 44.61 27.79 44.61 27.96 44.6Z" fill="#353535" fill-opacity="1.000000" fill-rule="evenodd"/>
	<path id="Vector" d="M12.64 44.06C12.66 43.96 12.9 43.34 12.95 43.3L13.24 44.06L12.64 44.06ZM12.24 44.62C12.44 44.63 12.41 44.63 12.47 44.47C12.61 44.13 12.47 44.21 13.32 44.22C13.37 44.35 13.41 44.53 13.49 44.62L13.64 44.62C13.64 44.54 13.07 43.15 13.01 43.07L12.88 43.07C12.82 43.17 12.25 44.54 12.24 44.62Z" fill="#353535" fill-opacity="1.000000" fill-rule="evenodd"/>
	<path id="Vector" d="M18.77 43.23C18.77 43.24 18.77 43.24 18.77 43.25L18.79 43.3C18.8 43.46 18.77 44.33 18.79 44.6L18.93 44.6L18.93 43.08C18.71 43.08 18.24 43.06 18.05 43.1C18.03 43.39 18.07 43.69 18.03 43.98C17.98 44.31 17.95 44.47 17.62 44.47L17.61 44.62C18.3 44.74 18.2 43.81 18.21 43.23L18.77 43.23Z" fill="#353535" fill-opacity="1.000000" fill-rule="evenodd"/>
	<path id="Vector" d="M37.39 44.46L37.39 43.89L38.1 43.89L38.09 43.73L37.39 43.74L37.39 43.23C37.55 43.23 37.71 43.23 37.87 43.23C38.03 43.23 38.21 43.29 38.14 43.08C38.04 43.04 37.41 43.06 37.26 43.07C37.2 43.19 37.23 44.38 37.23 44.61L38.16 44.61L38.16 44.48C38.03 44.48 37.9 44.48 37.77 44.48C37.61 44.48 37.46 44.5 37.39 44.46Z" fill="#353535" fill-opacity="1.000000" fill-rule="evenodd"/>
	<path id="Vector" d="M42.15 44.59L42.14 44.46L41.37 44.47L41.37 43.89L42.07 43.89L42.07 43.73L41.37 43.74L41.38 43.23C41.54 43.22 42 43.26 42.12 43.21L42.13 43.11C42.02 43.05 41.37 43.08 41.22 43.08L41.22 44.6C41.38 44.61 42.03 44.64 42.15 44.59Z" fill="#353535" fill-opacity="1.000000" fill-rule="evenodd"/>
	<path id="Vector" d="M22.93 44.62C23.13 44.65 23.09 44.6 23.09 44.42L23.09 43.23L23.87 43.23L23.88 44.62L24.01 44.62L24.01 43.08L22.93 43.09L22.93 44.62Z" fill="#353535" fill-opacity="1.000000" fill-rule="evenodd"/>
	<path id="Vector" d="M29.46 44.45L29.47 43.89L30.18 43.89L30.17 43.74L29.46 43.73L29.47 43.23L30.22 43.23L30.21 43.07L29.32 43.07L29.32 44.6L30.24 44.61L30.24 44.48L29.65 44.48C29.5 44.48 29.51 44.5 29.46 44.45Z" fill="#353535" fill-opacity="1.000000" fill-rule="evenodd"/>
	<path id="Vector" d="M35.76 43.23L35.76 44.62L35.91 44.62L35.92 43.23L36.4 43.23L36.39 43.07L35.38 43.07C35.32 43.07 35.3 43.05 35.27 43.1C35.25 43.13 35.26 43.2 35.28 43.21C35.31 43.25 35.68 43.23 35.76 43.23Z" fill="#353535" fill-opacity="1.000000" fill-rule="evenodd"/>
	<path id="Vector" d="M11.72 19.83L11.71 16.49L15.17 16.49L15.18 20.17C15.21 20.11 15.2 19.8 15.2 19.72C15.2 19.26 15.22 16.64 15.19 16.47C15.04 16.45 11.83 16.45 11.7 16.48C11.66 16.62 11.68 19.03 11.68 19.44C11.68 19.58 11.66 19.8 11.72 19.83Z" fill="#353535" fill-opacity="1.000000" fill-rule="evenodd"/>
	<path id="Vector" d="M7.47 19.4L7.46 16.49L11.08 16.48L11.07 19.77C11.11 19.71 11.1 19.66 11.09 19.57C11.09 19.07 11.12 16.65 11.08 16.47C10.95 16.44 7.6 16.44 7.45 16.48C7.41 16.68 7.44 18.69 7.44 19.25C7.44 19.43 7.44 19.39 7.47 19.4Z" fill="#353535" fill-opacity="1.000000" fill-rule="evenodd"/>
	<path id="Vector" d="M11.73 12.59C11.68 12.62 11.7 12.56 11.68 12.67C11.68 12.68 11.68 12.76 11.68 12.78C11.69 13.31 11.66 15.78 11.69 15.97L15.19 15.96C15.22 15.8 15.22 12.28 15.19 12.12C15.12 12.11 15.11 12.11 15.06 12.15L15.17 12.13L15.18 15.95L11.71 15.95C11.69 15.4 11.71 14.81 11.71 14.26C11.71 14 11.67 12.73 11.73 12.59Z" fill="#353535" fill-opacity="1.000000" fill-rule="evenodd"/>
	<path id="Vector" d="M41.17 18.85C41.2 18.81 41.18 18.89 41.2 18.78L41.2 18.52C41.2 18.07 41.22 16.45 41.19 16.26C41.02 16.23 38.82 16.26 38.36 16.25C38.29 16.25 38.23 16.23 38.2 16.28L41.18 16.27L41.17 18.85Z" fill="#353535" fill-opacity="1.000000" fill-rule="evenodd"/>
	<path id="Vector" d="M44.44 18.35C44.47 18.32 44.45 18.36 44.46 18.29L44.46 18.09C44.46 17.72 44.48 16.43 44.45 16.26C44.31 16.23 42.63 16.25 42.34 16.25C42.27 16.25 41.71 16.22 41.67 16.28L44.44 16.27L44.44 18.35Z" fill="#353535" fill-opacity="1.000000" fill-rule="evenodd"/>
	<path id="Vector" d="M38.2 15.77C38.24 15.82 38.23 15.8 38.38 15.8C38.83 15.79 41.03 15.82 41.19 15.79C41.22 15.61 41.2 14.21 41.2 13.83C41.2 13.69 41.23 13.24 41.16 13.22C41.22 13.42 41.17 15.38 41.18 15.78L38.2 15.77Z" fill="#353535" fill-opacity="1.000000" fill-rule="evenodd"/>
	<path id="Vector" d="M41.67 15.77C41.7 15.81 41.65 15.8 41.75 15.8C42.01 15.82 44.41 15.8 44.45 15.79C44.48 15.63 44.46 14.3 44.46 13.94C44.46 13.85 44.49 13.73 44.43 13.7C44.48 13.87 44.43 15.45 44.44 15.78L41.67 15.77Z" fill="#353535" fill-opacity="1.000000" fill-rule="evenodd"/>
	<path id="Vector" d="M43.64 42.8C43.49 42.83 43.45 42.73 43.41 42.63C43.27 42.64 43.28 42.7 43.35 42.82C43.47 43.01 43.92 43 43.91 42.64C43.72 42.63 43.83 42.78 43.64 42.8Z" fill="#353535" fill-opacity="1.000000" fill-rule="evenodd"/>
	<path id="Vector" d="M22.93 44.62L22.93 43.09L24.01 43.08L24.01 44.62C24.03 44.59 24.02 44.64 24.03 44.56L24.03 44.41C24.03 44.12 24.05 43.22 24.02 43.06L22.92 43.07C22.89 43.25 22.91 43.66 22.91 43.86C22.91 44.01 22.88 44.52 22.93 44.62Z" fill="#353535" fill-opacity="1.000000" fill-rule="evenodd"/>
	<path id="Vector" d="M18.77 43.23L18.78 44.63L18.94 44.62C18.96 44.5 18.96 43.18 18.94 43.07C18.84 43.05 18.42 43.06 18.26 43.06C18.23 43.06 18.16 43.06 18.13 43.06C18.04 43.07 18.08 43.05 18.05 43.1C18.24 43.06 18.71 43.08 18.93 43.08L18.93 44.6L18.79 44.6C18.77 44.33 18.8 43.46 18.79 43.3L18.77 43.25C18.77 43.24 18.77 43.24 18.77 43.23Z" fill="#353535" fill-opacity="1.000000" fill-rule="evenodd"/>
	<path id="Vector" d="M29.46 44.45C29.51 44.5 29.5 44.48 29.64 44.48L30.24 44.48L30.24 44.61L29.32 44.6L29.32 43.07C29.31 43.1 29.31 43.05 29.3 43.13C29.28 43.26 29.3 44.61 29.31 44.63L30.25 44.62L30.25 44.46L29.46 44.45Z" fill="#353535" fill-opacity="1.000000" fill-rule="evenodd"/>
	<path id="Vector" d="M37.39 44.46C37.46 44.5 37.61 44.48 37.77 44.48C37.9 44.48 38.03 44.48 38.16 44.48L38.16 44.61L37.23 44.61C37.23 44.38 37.2 43.19 37.26 43.07C37.22 43.09 37.21 43.02 37.22 43.26C37.22 43.32 37.22 43.38 37.22 43.45C37.22 43.58 37.22 43.71 37.22 43.83C37.22 44.05 37.2 44.42 37.22 44.63L38.17 44.62L38.17 44.46L37.39 44.46Z" fill="#353535" fill-opacity="1.000000" fill-rule="evenodd"/>
	<path id="Vector" d="M42.15 44.59C42.04 44.64 41.39 44.61 41.22 44.6L41.22 43.08C41.38 43.08 42.02 43.05 42.13 43.11C42.1 43.05 42.15 43.07 42.04 43.06L41.2 43.07L41.21 44.62C41.33 44.64 41.55 44.63 41.69 44.63C41.83 44.63 42.13 44.66 42.15 44.59Z" fill="#353535" fill-opacity="1.000000" fill-rule="evenodd"/>
	<path id="Vector" d="M27.96 44.6C27.78 44.61 27.58 44.61 27.4 44.6L27.4 43.07C27.35 43.18 27.38 44.58 27.39 44.62C27.47 44.63 27.94 44.65 27.96 44.6Z" fill="#353535" fill-opacity="1.000000" fill-rule="evenodd"/>
	<path id="Vector" d="M6.56 44.47L6.55 43.07C6.43 43.05 6.22 43.06 6.09 43.06C6.01 43.06 5.93 43.06 5.85 43.06C5.82 43.06 5.75 43.06 5.73 43.06C5.63 43.07 5.67 43.05 5.64 43.1C5.85 43.06 6.31 43.09 6.54 43.08L6.54 44.41C6.56 44.51 6.54 44.43 6.56 44.47Z" fill="#353535" fill-opacity="1.000000" fill-rule="evenodd"/>
	<path id="Vector" d="M39.32 43.69L39.34 43.62C39.34 43.61 39.34 43.55 39.34 43.54L39.34 43.08L40.22 43.09C40.17 43.04 40.09 43.06 39.99 43.06C39.83 43.06 39.43 43.05 39.32 43.07L39.32 43.69Z" fill="#353535" fill-opacity="1.000000" fill-rule="evenodd"/>
	<path id="Vector" d="M15.8 43.66C15.85 43.62 15.83 43.19 15.83 43.09L16.72 43.09C16.69 43.05 16.74 43.08 16.68 43.07C16.68 43.06 16.63 43.06 16.63 43.06L15.81 43.07L15.8 43.66Z" fill="#353535" fill-opacity="1.000000" fill-rule="evenodd"/>
	<path id="Vector" d="M20.31 43.8C20.39 43.84 20.53 43.84 20.62 43.82L20.64 43.3C20.63 43.19 20.64 43.28 20.62 43.23L20.62 43.8L20.31 43.8Z" fill="#353535" fill-opacity="1.000000" fill-rule="evenodd"/>
	<path id="Vector" d="M8.22 32.65C8.2 32.66 8.18 32.68 8.18 32.67C8.17 32.66 8.16 32.67 8.15 32.68L8.1 32.63C8.13 32.71 8.12 32.69 8.18 32.72L8.22 32.65Z" fill="#E7B888" fill-opacity="1.000000" fill-rule="evenodd"/>
	<path id="Vector" d="M49.81 16.42L49.78 16.43C49.8 16.46 49.73 16.48 49.81 16.46C49.88 16.37 49.81 16.42 49.81 16.42Z" fill="#353535" fill-opacity="1.000000" fill-rule="evenodd"/>
	<path id="Vector" d="M0.05 16.28L0.04 16.27C-0.01 16.31 0.01 16.27 0 16.34C0.05 16.32 0.02 16.34 0.05 16.28Z" fill="#353535" fill-opacity="1.000000" fill-rule="evenodd"/>
	<path id="Vector" d="M10.68 44.29C10.68 44.29 10.7 44.37 10.73 44.27L10.68 44.29Z" fill="#353535" fill-opacity="1.000000" fill-rule="evenodd"/>
</svg>
