<svg width="65.000000" height="56.000000" viewBox="0 0 65 56" fill="none" xmlns="http://www.w3.org/2000/svg" xmlns:xlink="http://www.w3.org/1999/xlink">
	<desc>
			Created with Pixso.
	</desc>
	<defs>
		<clipPath id="clip4_574">
			<rect id="logo-desktop" width="65.000000" height="56.000000" fill="white" fill-opacity="0"/>
		</clipPath>
	</defs>
	<rect id="logo-desktop" width="65.000000" height="56.000000" fill="#FFFFFF" fill-opacity="0"/>
	<g clip-path="url(#clip4_574)">
		<path id="Vector" d="M0.06 20.25L0.07 20.27C0.25 20.17 0.4 19.96 0.55 19.82C0.88 19.5 1.57 18.87 1.85 18.57C2.11 18.3 2.44 18.02 2.67 17.79L3.13 17.32C3.18 17.27 3.21 17.26 3.26 17.21C3.31 17.17 3.28 17.2 3.31 17.16C3.35 17.11 3.31 17.15 3.37 17.1C3.47 17.01 3.49 16.97 3.59 16.88L5 15.52C5.09 15.44 5.14 15.38 5.23 15.29L7.45 13.16C7.51 13.11 7.5 13.1 7.56 13.05L8.26 12.37C8.49 12.15 8.72 11.9 8.97 11.69L9.42 11.24C9.51 11.15 9.58 11.11 9.67 11.01L10.25 10.45C10.28 10.42 10.31 10.38 10.36 10.34L10.82 9.88C10.91 9.8 10.98 9.76 11.06 9.67L12.92 7.86C12.97 7.81 13 7.79 13.05 7.74C13.31 7.47 13.63 7.2 13.86 6.96L14.78 6.05C14.87 5.97 14.94 5.91 15.01 5.83C15.16 5.89 17.36 8.22 17.67 8.54C18.11 8.99 18.54 9.43 19 9.89L20.3 11.25C20.51 11.49 20.75 11.71 20.98 11.93L22.29 13.28C23.18 14.18 24.02 15.1 24.91 16C25.14 16.22 25.36 16.45 25.58 16.67C25.7 16.79 25.79 16.9 25.91 17.03C26.03 17.14 26.12 17.25 26.24 17.36C26.47 17.58 26.7 17.81 26.89 18.04C27.08 18.26 27.33 18.49 27.55 18.71C27.78 18.94 27.98 19.16 28.2 19.39C28.55 19.73 29.25 20.49 29.53 20.75C29.77 20.96 29.98 21.2 30.18 21.43C30.34 21.61 30.52 21.75 30.69 21.93C30.75 22 30.78 22.03 30.84 22.1C31.03 22.29 31.63 22.95 31.84 23.12C31.94 23.21 32.31 23.16 32.47 23.16L37.8 23.16C38.49 23.16 39.85 23.2 40.46 23.16L42.15 21.03C42.3 20.84 42.44 20.68 42.58 20.5L43.43 19.43C43.56 19.25 43.7 19.1 43.84 18.92L51.04 9.9C51.12 9.79 51.17 9.74 51.25 9.64C51.73 9.08 52.26 8.38 52.73 7.79C52.87 7.61 53 7.45 53.15 7.26L53.79 6.46C53.85 6.39 53.92 6.27 54.01 6.21C54.23 6.43 55.12 7.7 55.36 8C55.83 8.59 56.24 9.2 56.7 9.78C57.39 10.66 58.03 11.56 58.71 12.45L61.39 16C61.75 16.49 64.67 20.31 64.71 20.45L64.75 20.43C64.56 20.01 64.33 19.58 64.12 19.15L55.8 2.54C55.5 1.93 54.77 0.53 54.54 0L19.44 4.32L18.23 3.22C18.18 3.17 18.13 3.14 18.07 3.09L16.74 1.87C16.5 1.68 16.24 1.4 16 1.2L15.71 0.93C15.65 0.88 15.61 0.85 15.55 0.79L14.97 0.26C14.9 0.19 14.75 0.04 14.67 0.01L13.29 1.9C13.14 2.11 12.97 2.33 12.83 2.54L11.92 3.8C11.6 4.22 11.31 4.65 11 5.07C10.39 5.93 9.78 6.76 9.17 7.61C8.86 8.04 8.54 8.45 8.26 8.87C7.72 9.67 7.01 10.57 6.44 11.39C5.92 12.14 5.15 13.19 4.61 13.93C3.4 15.6 2.13 17.33 0.95 19C0.82 19.18 0.09 20.15 0.06 20.25Z" fill="#17170A" fill-opacity="1.000000" fill-rule="evenodd"/>
		<path id="Vector" d="M59.78 38.16C59.66 37.85 58.95 35.92 58.87 35.81L56.14 35.81L56.13 35.97L56.99 35.97C57.02 36.19 57 41.34 57 41.83C57 42.17 57.02 42.42 56.82 42.63C56.55 42.91 56.29 42.81 56.13 42.9L56.13 43.03C56.42 43.03 57.93 43.08 58.07 43L58.07 42.88C57.37 42.81 57.17 42.68 57.17 41.94L57.17 36.42C57.3 36.65 58.35 39.52 58.48 39.86C58.7 40.43 58.92 41 59.14 41.58C59.35 42.14 59.59 42.74 59.78 43.3L59.95 43.29C60.16 42.74 60.35 42.12 60.53 41.56C60.72 40.99 60.92 40.42 61.11 39.85L62.26 36.44L62.29 42.88C62.11 42.88 61.54 42.85 61.4 42.9L61.4 43C61.5 43.06 64.64 43.04 64.99 43.03L64.97 42.88L64.1 42.88L64.1 35.97L64.98 35.97L64.98 35.81L62.31 35.81C62.22 35.96 61.62 37.82 61.5 38.16C61.4 38.47 60.77 40.43 60.69 40.52C60.61 40.42 59.9 38.45 59.78 38.16Z" fill="#17180A" fill-opacity="1.000000" fill-rule="evenodd"/>
		<path id="Vector" d="M4.96 35.96C5.19 35.95 6.54 35.94 6.66 35.98C6.76 36.03 7.09 36.95 7.16 37.11C7.32 37.5 7.47 37.89 7.64 38.28C7.75 38.55 7.64 38.67 7.55 38.92C7.46 39.19 6.95 40.66 6.87 40.7L5.9 38.35C5.78 38.04 4.95 36.11 4.96 35.96ZM10.69 40.63L10.64 40.72C10.56 40.69 10.58 40.7 10.54 40.61C10.5 40.35 8.68 36.21 8.67 35.96C8.87 35.95 9.24 36.01 9.38 35.94C9.38 35.78 9.41 35.82 9.02 35.82C8.03 35.82 2.31 35.78 2.08 35.84C2.09 35.98 2.08 35.97 2.25 35.96C2.96 35.96 2.94 35.88 3.07 36.21L3.35 36.91C3.48 37.22 3.61 37.52 3.73 37.83C3.98 38.45 4.24 39.06 4.49 39.68L5.83 42.95C5.86 43.03 5.89 43.1 5.92 43.18C5.96 43.28 5.98 43.31 6.11 43.28C6.19 43.16 7.22 40.26 7.37 39.86C7.44 39.67 7.72 38.84 7.79 38.74C7.94 38.85 9.52 43.08 9.7 43.29C9.89 43.3 9.86 43.22 9.99 42.89C10.68 41.06 11.35 39.15 12.03 37.31C12.16 36.94 12.25 36.62 12.48 36.37C12.85 35.97 13.28 36.01 13.42 35.94L13.41 35.83C13.24 35.79 11.6 35.8 11.47 35.84C11.49 36.11 11.7 35.85 11.97 36.21C12.13 36.42 12.13 36.62 12.03 36.89C11.88 37.31 11.73 37.7 11.57 38.13C11.47 38.41 10.67 40.53 10.69 40.63Z" fill="#EFA35A" fill-opacity="1.000000" fill-rule="evenodd"/>
		<path id="Vector" d="M37.38 42.87L37.38 35.98C37.66 35.94 38.45 35.96 38.7 36.04C39.03 36.16 39.3 36.43 39.44 36.71C39.68 37.16 39.58 38.77 39.58 39.4C39.58 39.87 39.58 40.34 39.58 40.82C39.58 41.28 39.63 41.71 39.46 42.11C39.33 42.39 39.04 42.68 38.73 42.79C38.46 42.89 37.68 42.92 37.38 42.87ZM37.27 35.81C36.94 35.81 34.79 35.78 34.67 35.83L34.66 35.93C34.82 36.03 35.33 35.95 35.56 35.97L35.56 42.87C35.34 42.9 34.83 42.84 34.66 42.9L34.66 43C34.78 43.07 36.97 43.03 37.29 43.03C38.13 43.03 38.92 43.09 39.64 42.75C39.8 42.68 39.94 42.6 40.07 42.52C40.18 42.45 40.39 42.3 40.45 42.23L40.77 41.88C41.27 41.23 41.58 40.3 41.57 39.4C41.56 38.41 41.11 37.17 40.42 36.58C39.44 35.75 38.54 35.81 37.27 35.81Z" fill="#17180A" fill-opacity="1.000000" fill-rule="evenodd"/>
		<path id="Vector" d="M48.91 35.84C49.63 35.75 50.21 36.28 50.35 36.84C50.46 37.31 50.4 38.67 50.4 39.24C50.4 39.73 50.42 41.35 50.39 41.71C50.25 43.33 48.12 43.43 47.76 42C47.66 41.59 47.72 40.1 47.72 39.59C47.72 38.77 47.7 37.92 47.73 37.11C47.73 36.94 47.77 36.76 47.84 36.61C47.94 36.38 48.21 36.1 48.43 35.98C48.58 35.91 48.72 35.87 48.91 35.84ZM52.42 39.59C52.46 39.14 52.34 38.47 52.21 38.06C51.97 37.34 51.68 36.87 51.17 36.41C49.93 35.32 47.74 35.47 46.68 36.65C46.63 36.71 46.61 36.72 46.57 36.78C46.53 36.82 46.52 36.84 46.48 36.9C45.4 38.28 45.45 40.55 46.5 41.96C47.64 43.49 50.18 43.57 51.44 42.18C51.57 42.03 51.7 41.86 51.82 41.66C52.25 40.91 52.34 40.46 52.42 39.59Z" fill="#17180A" fill-opacity="1.000000" fill-rule="evenodd"/>
		<path id="Vector" d="M15.25 15.67C15.18 15.84 15.23 17.43 15.23 17.74C15.23 18.44 15.21 19.16 15.23 19.85L19.73 19.85L19.73 15.1L19.58 15.12C19.42 15.1 17.69 15.34 17.39 15.39C17.03 15.44 16.66 15.48 16.31 15.53C16 15.57 15.52 15.6 15.25 15.67Z" fill="#17170A" fill-opacity="1.000000" fill-rule="evenodd"/>
		<path id="Vector" d="M15.23 24.68L19.74 25.11L19.73 20.52L15.22 20.52L15.23 24.68Z" fill="#17180A" fill-opacity="1.000000" fill-rule="evenodd"/>
		<path id="Vector" d="M9.71 24.15L14.39 24.61L14.4 20.51L9.7 20.52L9.71 24.15Z" fill="#17180A" fill-opacity="1.000000" fill-rule="evenodd"/>
		<path id="Vector" d="M9.69 19.87L14.42 19.86L14.41 15.78L9.69 16.4L9.69 19.87Z" fill="#17180A" fill-opacity="1.000000" fill-rule="evenodd"/>
		<path id="Vector" d="M28.6 35.85C28.6 36 28.62 35.96 28.76 35.98C29.55 36.06 29.47 36.69 29.47 37.27C29.47 37.98 29.51 38.84 29.47 39.53C29.37 39.49 28.69 38.34 28.58 38.16C28.29 37.7 28.01 37.25 27.72 36.78C27.01 35.63 27.29 35.82 26.42 35.82C26.08 35.82 24.37 35.78 24.21 35.84C24.22 35.97 24.22 35.96 24.37 35.96C24.52 35.96 25.02 35.93 25.07 35.99C25.12 36.04 25.09 41.12 25.09 41.91C25.09 43.2 24.19 42.64 24.22 43C24.33 43.05 25.96 43.05 26.08 43.01C26.11 42.94 26.1 43 26.09 42.9C25.73 42.74 25.23 42.99 25.24 41.88L25.24 36.29C25.35 36.33 25.28 36.27 25.36 36.39L29.26 42.68C29.4 42.92 29.43 43.04 29.59 43.02C29.6 42.99 29.6 43.01 29.61 42.95L29.61 42.76C29.59 40.87 29.61 38.87 29.61 36.97C29.61 36.66 29.63 36.38 29.82 36.18C29.92 36.09 30.01 36.04 30.15 36.01C30.48 35.92 30.47 36.05 30.49 35.84C30.39 35.8 28.7 35.77 28.6 35.85Z" fill="#EFA35A" fill-opacity="1.000000" fill-rule="evenodd"/>
		<path id="Vector" d="M20.18 35.96C20.31 35.96 20.49 35.98 20.58 35.94C20.57 35.78 20.56 35.81 20.37 35.82C19.35 35.83 17.91 35.77 16.99 35.84C17 36 17.03 35.97 17.21 35.96C17.96 35.94 17.87 35.9 17.87 36.23C17.87 38.44 17.89 40.67 17.87 42.88L17.53 42.88C17.35 42.88 16.95 42.84 16.98 42.97C17 43.06 17.16 43.03 17.26 43.03C18.19 43.03 19.78 43.07 20.56 43.01C20.59 42.94 20.59 43.01 20.57 42.9C20.38 42.83 19.93 42.91 19.68 42.87L19.68 36.49C19.68 36.4 19.64 36 19.72 35.98C19.73 35.98 19.74 35.97 19.74 35.97L19.81 35.96C19.84 35.96 19.91 35.96 19.94 35.96C20.02 35.96 20.1 35.96 20.18 35.96Z" fill="#EFA359" fill-opacity="1.000000" fill-rule="evenodd"/>
		<path id="Vector" d="M53.52 23.46L53.53 20.25L49.66 20.26L49.66 24.02L53.52 23.46Z" fill="#17170A" fill-opacity="1.000000" fill-rule="evenodd"/>
		<path id="Vector" d="M49.65 19.63L53.53 19.64C53.51 19.14 53.58 16.7 53.5 16.45L49.65 15.9L49.65 19.63Z" fill="#17170A" fill-opacity="1.000000" fill-rule="evenodd"/>
		<path id="Vector" d="M57.77 22.84L57.77 20.25L54.17 20.26L54.17 23.37L57.77 22.84Z" fill="#17170A" fill-opacity="1.000000" fill-rule="evenodd"/>
		<path id="Vector" d="M54.16 19.63L57.77 19.64C57.76 19.23 57.82 17.26 57.75 17.05L54.16 16.54L54.16 19.63Z" fill="#17170A" fill-opacity="1.000000" fill-rule="evenodd"/>
		<path id="Vector" d="M13.96 55.09C13.91 55.22 13.89 55.11 13.89 55.11C13.81 54.91 13.34 53.69 13.26 53.6L12.98 53.6C12.94 53.74 12.95 55.39 12.98 55.53L13.17 55.52L13.17 53.96C13.3 54.11 13.73 55.4 13.86 55.53C14 55.53 13.97 55.52 14.02 55.4L14.28 54.77C14.39 54.5 14.5 54.23 14.6 53.96C14.61 53.97 14.61 53.97 14.61 53.98C14.62 53.98 14.62 53.99 14.62 54C14.67 54.15 14.61 55.27 14.65 55.53L14.85 55.53L14.84 53.6L14.55 53.61C14.47 53.7 13.96 54.99 13.96 55.09Z" fill="#19190E" fill-opacity="1.000000" fill-rule="evenodd"/>
		<path id="Vector" d="M40.97 53.8L41.73 53.8L41.73 55.33L40.72 55.33C40.8 55.08 40.9 54.98 40.94 54.65C40.97 54.36 40.97 54.09 40.97 53.8ZM40.48 55.53L41.96 55.54L41.96 56L42.17 55.98L42.16 55.34L41.94 55.32L41.93 53.6L40.78 53.6C40.72 53.86 40.78 54.33 40.72 54.66C40.69 54.82 40.65 54.96 40.59 55.09C40.34 55.65 40.21 54.92 40.28 55.99L40.48 55.99L40.48 55.53Z" fill="#191710" fill-opacity="1.000000" fill-rule="evenodd"/>
		<path id="Vector" d="M7.55 53.8L8.31 53.8L8.31 55.33L7.31 55.33C7.38 55.09 7.48 54.98 7.52 54.65C7.55 54.35 7.54 54.1 7.55 53.8ZM8.53 55.34C8.51 55.29 8.53 55.39 8.51 55.27L8.51 53.62C8.2 53.62 7.6 53.58 7.34 53.64C7.31 53.99 7.37 54.33 7.3 54.69C7.26 54.85 7.23 55 7.16 55.12C7.15 55.15 7.07 55.27 7.06 55.28C6.97 55.38 7 55.31 6.86 55.35L6.87 55.99L7.05 55.99L7.06 55.53L8.54 55.54L8.54 56L8.74 55.98L8.73 55.34L8.53 55.34Z" fill="#19190E" fill-opacity="1.000000" fill-rule="evenodd"/>
		<path id="Vector" d="M20.77 53.81L21.53 53.8L21.53 55.33L20.53 55.33C20.61 55.09 20.7 54.97 20.74 54.66C20.77 54.35 20.76 54.12 20.77 53.81ZM20.55 54.33C20.55 54.55 20.51 54.78 20.44 54.97C20.28 55.42 20.22 55.3 20.07 55.35L20.08 55.99L20.28 55.98L20.28 55.53L21.76 55.53L21.76 55.99L21.96 55.99L21.95 55.34L21.75 55.33L21.75 53.63L20.58 53.62C20.58 53.74 20.61 54.28 20.55 54.33Z" fill="#16190D" fill-opacity="1.000000" fill-rule="evenodd"/>
		<path id="Vector" d="M55.96 53.61C55.92 53.89 55.95 54.48 55.95 54.79C55.95 55.43 55.87 55.55 56.1 55.53C56.22 55.53 56.21 55.5 56.27 55.41C56.35 55.28 57.12 54.04 57.22 53.96C57.24 54.25 57.22 54.58 57.22 54.87C57.22 55.6 57.16 55.54 57.42 55.53C57.45 55.39 57.45 53.73 57.42 53.6C57.1 53.59 57.17 53.65 57.01 53.89C56.92 54.03 56.83 54.17 56.74 54.31C56.63 54.46 56.28 55.06 56.18 55.14C56.16 54.86 56.17 54.52 56.17 54.23C56.17 53.55 56.23 53.56 55.96 53.61Z" fill="#191710" fill-opacity="1.000000" fill-rule="evenodd"/>
		<path id="Vector" d="M32.66 54.68C32.55 53.52 34.06 53.43 34.19 54.45C34.24 54.92 33.95 55.32 33.55 55.37C33.07 55.44 32.7 55.11 32.66 54.68ZM32.43 54.74C32.61 55.96 34.56 55.83 34.41 54.42C34.36 53.89 33.88 53.47 33.26 53.56C32.74 53.64 32.34 54.11 32.43 54.74Z" fill="#151710" fill-opacity="1.000000" fill-rule="evenodd"/>
		<path id="Vector" d="M10.01 54.68C9.89 53.53 11.44 53.43 11.54 54.44C11.65 55.6 10.12 55.7 10.01 54.68ZM9.79 54.74C9.96 55.97 11.9 55.84 11.77 54.42C11.64 53.15 9.59 53.31 9.79 54.74Z" fill="#151710" fill-opacity="1.000000" fill-rule="evenodd"/>
		<path id="Vector" d="M43.3 55.52C43.6 55.56 43.57 55.46 43.72 55.25C43.85 55.05 44.49 54.01 44.56 53.97L44.57 55.53L44.77 55.53L44.76 53.6C44.63 53.59 44.56 53.58 44.49 53.68C44.31 53.92 43.6 55.11 43.5 55.16L43.49 53.6C43.22 53.58 43.3 53.66 43.3 53.94C43.3 54.33 43.27 55.25 43.3 55.52Z" fill="#15160E" fill-opacity="1.000000" fill-rule="evenodd"/>
		<path id="Vector" d="M26.81 53.8C26.84 53.86 26.82 53.75 26.84 53.88L26.81 54.53C26.69 54.56 26.51 54.55 26.41 54.5C26.13 54.5 25.92 54.24 26.08 53.97C26.19 53.76 26.56 53.78 26.81 53.8ZM27.04 53.61C26.91 53.59 26.49 53.59 26.35 53.61C26.13 53.63 25.99 53.72 25.9 53.84C25.8 53.98 25.78 54.22 25.86 54.39C25.94 54.58 26.06 54.61 26.25 54.68C26.19 54.91 25.81 55.34 25.78 55.53C26.09 55.54 26 55.57 26.28 55.1C26.55 54.64 26.44 54.7 26.82 54.7C26.82 54.81 26.81 55.44 26.83 55.48C26.85 55.55 27.02 55.58 27.05 55.46C27.07 55.31 27.05 53.68 27.04 53.61Z" fill="#161911" fill-opacity="1.000000" fill-rule="evenodd"/>
		<path id="Vector" d="M51.11 54.37C51.11 54.61 51.09 54.83 51.03 55.05C50.93 55.36 50.84 55.31 50.56 55.35L50.54 55.53C51.44 55.7 51.31 54.49 51.33 53.8L52.06 53.81C52.07 54.16 52.01 55.26 52.08 55.53L52.29 55.53L52.29 53.63L51.14 53.62L51.14 54.18C51.14 54.2 51.14 54.27 51.14 54.29L51.11 54.37Z" fill="#191710" fill-opacity="1.000000" fill-rule="evenodd"/>
		<path id="Vector" d="M35.81 54.63C36.17 54.59 36.69 54.59 36.66 55C36.64 55.39 36.15 55.36 35.81 55.35L35.81 54.63ZM36.35 55.5C36.74 55.53 37.01 55.1 36.83 54.72C36.66 54.38 36.21 54.45 35.81 54.42L35.81 53.8C35.98 53.78 36.22 53.8 36.39 53.8C36.6 53.8 36.84 53.87 36.74 53.62C36.61 53.56 35.81 53.59 35.62 53.6L35.62 55.51C35.86 55.52 36.12 55.51 36.35 55.5Z" fill="#151710" fill-opacity="1.000000" fill-rule="evenodd"/>
		<path id="Vector" d="M16.44 54.83C16.46 54.7 16.77 53.94 16.84 53.89L17.22 54.83L16.44 54.83ZM15.92 55.53C16.18 55.54 16.14 55.54 16.22 55.34C16.39 54.92 16.21 55.02 17.31 55.03C17.38 55.19 17.44 55.41 17.53 55.53L17.74 55.53C17.73 55.43 17 53.7 16.92 53.6L16.74 53.6C16.67 53.72 15.93 55.43 15.92 55.53Z" fill="#151710" fill-opacity="1.000000" fill-rule="evenodd"/>
		<path id="Vector" d="M24.4 53.8C24.4 53.81 24.41 53.81 24.41 53.82L24.43 53.88C24.45 54.09 24.4 55.16 24.43 55.51L24.61 55.51L24.61 53.62C24.32 53.62 23.72 53.59 23.47 53.63C23.45 54 23.49 54.37 23.44 54.73C23.38 55.15 23.34 55.35 22.91 55.34L22.89 55.53C23.79 55.67 23.66 54.52 23.68 53.8L24.4 53.8Z" fill="#19190E" fill-opacity="1.000000" fill-rule="evenodd"/>
		<path id="Vector" d="M48.61 55.32L48.61 54.62L49.52 54.62L49.51 54.43L48.61 54.43L48.61 53.8C48.82 53.79 49.02 53.8 49.23 53.8C49.44 53.8 49.67 53.87 49.58 53.62C49.46 53.57 48.63 53.59 48.43 53.6C48.36 53.75 48.39 55.23 48.4 55.51L49.6 55.51L49.6 55.35C49.43 55.35 49.27 55.35 49.1 55.35C48.89 55.35 48.7 55.38 48.61 55.32Z" fill="#19190E" fill-opacity="1.000000" fill-rule="evenodd"/>
		<path id="Vector" d="M54.79 55.49L54.78 55.33L53.78 55.34L53.79 54.62L54.69 54.62L54.68 54.43L53.78 54.43L53.79 53.8C54 53.79 54.6 53.84 54.76 53.78L54.76 53.64C54.63 53.58 53.79 53.61 53.58 53.62L53.58 55.51C53.8 55.52 54.64 55.55 54.79 55.49Z" fill="#19190E" fill-opacity="1.000000" fill-rule="evenodd"/>
		<path id="Vector" d="M29.81 55.52C30.06 55.56 30.02 55.51 30.02 55.27L30.02 53.8L31.03 53.8L31.04 55.53L31.22 55.52L31.22 53.62L29.82 53.62L29.81 55.52Z" fill="#151710" fill-opacity="1.000000" fill-rule="evenodd"/>
		<path id="Vector" d="M38.3 55.32L38.3 54.62L39.23 54.62L39.22 54.43L38.3 54.42L38.31 53.8L39.29 53.79L39.27 53.6L38.12 53.6L38.11 55.51L39.31 55.51L39.31 55.36L38.54 55.35C38.34 55.35 38.36 55.37 38.3 55.32Z" fill="#19190E" fill-opacity="1.000000" fill-rule="evenodd"/>
		<path id="Vector" d="M46.48 53.8L46.49 55.53L46.68 55.53L46.69 53.8L47.32 53.79L47.31 53.6L45.99 53.6C45.91 53.6 45.89 53.58 45.85 53.64C45.83 53.67 45.84 53.76 45.86 53.78C45.9 53.82 46.38 53.8 46.48 53.8Z" fill="#191710" fill-opacity="1.000000" fill-rule="evenodd"/>
		<path id="Vector" d="M15.23 24.68L15.22 20.52L19.73 20.52L19.74 25.11C19.78 25.03 19.76 24.64 19.76 24.55C19.76 23.98 19.79 20.71 19.75 20.5C19.56 20.47 15.38 20.47 15.21 20.5C15.17 20.69 15.19 23.69 15.19 24.2C15.19 24.36 15.16 24.64 15.23 24.68Z" fill="#655A43" fill-opacity="1.000000" fill-rule="evenodd"/>
		<path id="Vector" d="M9.71 24.15L9.7 20.52L14.4 20.51L14.39 24.61C14.44 24.53 14.43 24.46 14.43 24.36C14.42 23.73 14.46 20.72 14.42 20.5C14.24 20.46 9.89 20.46 9.69 20.5C9.64 20.76 9.68 23.26 9.68 23.96C9.67 24.19 9.68 24.13 9.71 24.15Z" fill="#655A43" fill-opacity="1.000000" fill-rule="evenodd"/>
		<path id="Vector" d="M15.25 15.67C15.19 15.71 15.21 15.63 15.19 15.77C15.19 15.78 15.2 15.89 15.2 15.9C15.2 16.56 15.17 19.64 15.21 19.88L19.75 19.87C19.79 19.66 19.79 15.28 19.75 15.09C19.66 15.07 19.64 15.07 19.58 15.12L19.73 15.1L19.73 19.85L15.23 19.85C15.21 19.16 15.23 18.44 15.23 17.74C15.23 17.43 15.18 15.84 15.25 15.67Z" fill="#61533D" fill-opacity="1.000000" fill-rule="evenodd"/>
		<path id="Vector" d="M53.52 23.46C53.56 23.41 53.53 23.51 53.56 23.37L53.56 23.05C53.56 22.49 53.59 20.47 53.54 20.24C53.32 20.2 50.47 20.23 49.87 20.22C49.78 20.22 49.69 20.2 49.66 20.26L53.53 20.25L53.52 23.46Z" fill="#665A3D" fill-opacity="1.000000" fill-rule="evenodd"/>
		<path id="Vector" d="M57.77 22.84C57.8 22.8 57.79 22.85 57.8 22.76L57.8 22.52C57.8 22.06 57.83 20.45 57.79 20.24C57.6 20.2 55.42 20.22 55.04 20.22C54.95 20.22 54.22 20.18 54.17 20.26L57.77 20.25L57.77 22.84Z" fill="#655A43" fill-opacity="1.000000" fill-rule="evenodd"/>
		<path id="Vector" d="M49.65 19.63C49.71 19.69 49.69 19.67 49.89 19.66C50.48 19.66 53.34 19.69 53.54 19.65C53.59 19.42 53.55 17.69 53.55 17.21C53.55 17.03 53.59 16.48 53.5 16.45C53.58 16.7 53.51 19.14 53.53 19.64L49.65 19.63Z" fill="#61533D" fill-opacity="1.000000" fill-rule="evenodd"/>
		<path id="Vector" d="M54.16 19.63C54.21 19.67 54.15 19.66 54.27 19.67C54.61 19.69 57.73 19.66 57.79 19.65C57.82 19.46 57.8 17.8 57.8 17.34C57.8 17.24 57.83 17.09 57.75 17.05C57.82 17.26 57.76 19.23 57.77 19.64L54.16 19.63Z" fill="#5C513C" fill-opacity="1.000000" fill-rule="evenodd"/>
		<path id="Vector" d="M56.73 53.27C56.53 53.3 56.49 53.17 56.43 53.06C56.25 53.07 56.26 53.13 56.35 53.28C56.51 53.52 57.1 53.51 57.09 53.06C56.83 53.05 56.98 53.23 56.73 53.27Z" fill="#151710" fill-opacity="1.000000" fill-rule="evenodd"/>
		<path id="Vector" d="M29.81 55.52L29.82 53.62L31.22 53.62L31.22 55.52C31.24 55.49 31.22 55.56 31.24 55.46L31.25 55.27C31.24 54.9 31.27 53.79 31.23 53.59L29.8 53.6C29.76 53.82 29.79 54.33 29.79 54.58C29.79 54.77 29.75 55.41 29.81 55.52Z" fill="#61533D" fill-opacity="1.000000" fill-rule="evenodd"/>
		<path id="Vector" d="M24.4 53.8L24.41 55.53L24.63 55.53C24.65 55.38 24.65 53.74 24.63 53.6C24.49 53.57 23.95 53.59 23.74 53.59C23.7 53.59 23.61 53.59 23.58 53.59C23.46 53.6 23.51 53.58 23.47 53.63C23.72 53.59 24.32 53.62 24.61 53.62L24.61 55.51L24.43 55.51C24.4 55.16 24.45 54.09 24.43 53.88L24.41 53.82C24.41 53.81 24.4 53.81 24.4 53.8Z" fill="#61533D" fill-opacity="1.000000" fill-rule="evenodd"/>
		<path id="Vector" d="M38.3 55.32C38.36 55.37 38.34 55.35 38.54 55.35L39.31 55.36L39.31 55.51L38.11 55.51L38.12 53.6C38.1 53.64 38.11 53.57 38.09 53.67C38.06 53.83 38.1 55.52 38.1 55.54L39.33 55.53L39.32 55.33L38.3 55.32Z" fill="#61533D" fill-opacity="1.000000" fill-rule="evenodd"/>
		<path id="Vector" d="M48.61 55.32C48.7 55.38 48.89 55.35 49.1 55.35C49.27 55.35 49.43 55.35 49.6 55.35L49.6 55.51L48.4 55.51C48.39 55.23 48.36 53.75 48.43 53.6C48.38 53.63 48.38 53.54 48.38 53.83C48.38 53.91 48.38 53.99 48.38 54.07C48.38 54.23 48.38 54.39 48.38 54.55C48.38 54.82 48.35 55.28 48.39 55.54L49.62 55.53L49.62 55.33L48.61 55.32Z" fill="#655A43" fill-opacity="1.000000" fill-rule="evenodd"/>
		<path id="Vector" d="M54.79 55.49C54.64 55.55 53.8 55.52 53.58 55.51L53.58 53.62C53.79 53.61 54.63 53.58 54.76 53.64C54.73 53.58 54.79 53.59 54.64 53.59L53.55 53.6L53.57 55.53C53.73 55.56 54.01 55.54 54.19 55.54C54.37 55.54 54.76 55.58 54.79 55.49Z" fill="#655A43" fill-opacity="1.000000" fill-rule="evenodd"/>
		<path id="Vector" d="M36.35 55.5C36.12 55.51 35.86 55.52 35.62 55.51L35.62 53.6C35.56 53.73 35.6 55.47 35.6 55.53C35.71 55.54 36.32 55.57 36.35 55.5Z" fill="#61533D" fill-opacity="1.000000" fill-rule="evenodd"/>
		<path id="Vector" d="M8.53 55.34L8.52 53.6C8.37 53.57 8.1 53.59 7.93 53.59C7.82 53.59 7.72 53.59 7.61 53.59C7.57 53.59 7.48 53.59 7.45 53.59C7.32 53.6 7.38 53.58 7.34 53.64C7.6 53.58 8.2 53.62 8.51 53.62L8.51 55.27C8.53 55.39 8.51 55.29 8.53 55.34Z" fill="#5D5233" fill-opacity="1.000000" fill-rule="evenodd"/>
		<path id="Vector" d="M51.11 54.38L51.14 54.29C51.14 54.27 51.14 54.2 51.14 54.18L51.14 53.62L52.29 53.63C52.22 53.57 52.12 53.59 51.99 53.59C51.78 53.59 51.26 53.58 51.12 53.6L51.11 54.38Z" fill="#5D5442" fill-opacity="1.000000" fill-rule="evenodd"/>
		<path id="Vector" d="M20.55 54.33C20.61 54.28 20.58 53.74 20.58 53.62L21.75 53.63C21.7 53.58 21.76 53.61 21.69 53.59C21.69 53.59 21.62 53.59 21.62 53.59L20.56 53.6L20.55 54.33Z" fill="#5D5442" fill-opacity="1.000000" fill-rule="evenodd"/>
		<path id="Vector" d="M26.41 54.5C26.51 54.55 26.69 54.56 26.81 54.53L26.84 53.88C26.82 53.75 26.84 53.86 26.81 53.8L26.81 54.51L26.41 54.5Z" fill="#776A55" fill-opacity="1.000000" fill-rule="evenodd"/>
		<path id="Vector" d="M10.69 40.63C10.66 40.64 10.64 40.66 10.63 40.66C10.63 40.65 10.61 40.66 10.6 40.67L10.54 40.61C10.58 40.7 10.56 40.68 10.64 40.72L10.69 40.63Z" fill="#E7B888" fill-opacity="1.000000" fill-rule="evenodd"/>
		<path id="Vector" d="M64.75 20.43L64.71 20.45C64.74 20.49 64.65 20.5 64.75 20.48C64.84 20.37 64.76 20.44 64.75 20.43Z" fill="#8E846F" fill-opacity="1.000000" fill-rule="evenodd"/>
		<path id="Vector" d="M0.07 20.27L0.06 20.25C0 20.3 0.03 20.25 0 20.33C0.07 20.31 0.04 20.33 0.07 20.27Z" fill="#504732" fill-opacity="1.000000" fill-rule="evenodd"/>
		<path id="Vector" d="M13.89 55.11C13.89 55.11 13.91 55.22 13.96 55.09L13.89 55.11Z" fill="#675A46" fill-opacity="1.000000" fill-rule="evenodd"/>
	</g>
</svg>
