<svg width="40.000000" height="35.000000" viewBox="0 0 40 35" fill="none" xmlns="http://www.w3.org/2000/svg" xmlns:xlink="http://www.w3.org/1999/xlink">
	<desc>
			Created with Pixso.
	</desc>
	<defs>
		<clipPath id="clip4_1875">
			<rect id="logo-mobile" width="40.000000" height="35.000000" fill="white" fill-opacity="0"/>
		</clipPath>
	</defs>
	<rect id="logo-mobile" width="40.000000" height="35.000000" fill="#FFFFFF" fill-opacity="0"/>
	<g clip-path="url(#clip4_1875)">
		<path id="Vector" d="M0.04 12.66L0.04 12.66C0.15 12.6 0.25 12.47 0.33 12.38C0.54 12.18 0.97 11.79 1.14 11.6C1.3 11.43 1.5 11.26 1.64 11.12L1.93 10.83C1.96 10.79 1.98 10.78 2.01 10.76C2.04 10.73 2.01 10.75 2.04 10.72C2.06 10.69 2.04 10.72 2.07 10.69C2.13 10.63 2.15 10.61 2.21 10.55L3.07 9.7C3.13 9.65 3.16 9.61 3.21 9.56L4.58 8.22C4.62 8.19 4.61 8.19 4.65 8.15L5.08 7.73C5.22 7.59 5.36 7.43 5.52 7.31L5.79 7.02C5.85 6.97 5.89 6.94 5.95 6.88L6.31 6.53C6.32 6.51 6.34 6.49 6.37 6.46L6.66 6.17C6.71 6.12 6.75 6.1 6.81 6.04L7.95 4.91C7.98 4.88 8 4.87 8.03 4.84C8.19 4.66 8.38 4.5 8.53 4.35L9.1 3.78C9.15 3.73 9.19 3.69 9.23 3.64C9.32 3.68 10.68 5.14 10.87 5.33C11.15 5.62 11.41 5.89 11.69 6.18L12.49 7.03C12.62 7.18 12.77 7.32 12.91 7.46L13.71 8.3C14.26 8.86 14.78 9.44 15.33 10C15.47 10.14 15.6 10.28 15.74 10.41C15.81 10.49 15.87 10.56 15.94 10.64C16.01 10.71 16.07 10.78 16.15 10.85C16.29 10.98 16.43 11.13 16.55 11.27C16.67 11.41 16.82 11.55 16.95 11.69C17.1 11.83 17.21 11.97 17.35 12.12C17.56 12.33 18 12.8 18.17 12.97C18.32 13.1 18.45 13.25 18.57 13.39C18.67 13.5 18.78 13.59 18.88 13.71C18.92 13.75 18.94 13.77 18.98 13.81C19.09 13.93 19.46 14.34 19.59 14.45C19.65 14.5 19.88 14.48 19.98 14.48L23.26 14.48C23.68 14.48 24.52 14.5 24.9 14.47L25.94 13.14C26.03 13.02 26.11 12.93 26.2 12.81L26.72 12.14C26.81 12.03 26.89 11.94 26.98 11.82L31.4 6.19C31.46 6.12 31.48 6.09 31.54 6.02C31.83 5.67 32.16 5.24 32.45 4.87C32.53 4.75 32.61 4.65 32.71 4.53L33.1 4.04C33.14 3.99 33.18 3.92 33.23 3.88C33.37 4.02 33.92 4.81 34.07 5C34.35 5.37 34.61 5.75 34.89 6.11C35.32 6.66 35.71 7.22 36.13 7.78L37.77 10C38 10.3 39.79 12.69 39.82 12.78L39.85 12.77C39.73 12.5 39.58 12.23 39.45 11.97L34.34 1.59C34.15 1.2 33.7 0.33 33.56 0L11.96 2.7L11.22 2.01C11.19 1.98 11.15 1.96 11.12 1.93L10.3 1.17C10.15 1.05 9.99 0.87 9.85 0.75L9.67 0.58C9.63 0.55 9.61 0.53 9.57 0.49L9.21 0.16C9.17 0.12 9.08 0.02 9.02 0L8.17 1.19C8.08 1.31 7.98 1.45 7.89 1.58L7.33 2.38C7.14 2.64 6.96 2.9 6.77 3.17C6.39 3.71 6.02 4.22 5.64 4.75C5.45 5.02 5.26 5.28 5.08 5.54C4.75 6.04 4.31 6.6 3.96 7.12C3.64 7.59 3.17 8.24 2.84 8.7C2.09 9.75 1.31 10.83 0.58 11.87C0.5 11.98 0.05 12.59 0.04 12.66Z" fill="#17170A" fill-opacity="1.000000" fill-rule="evenodd"/>
		<path id="Vector" d="M36.79 23.85C36.71 23.65 36.28 22.45 36.23 22.38L34.54 22.38L34.54 22.48L35.07 22.48C35.09 22.62 35.07 25.84 35.07 26.14C35.07 26.35 35.09 26.51 34.96 26.64C34.8 26.81 34.64 26.76 34.54 26.81L34.54 26.89C34.72 26.89 35.65 26.92 35.74 26.87L35.73 26.8C35.3 26.76 35.18 26.67 35.18 26.21L35.18 22.76C35.26 22.9 35.91 24.7 35.99 24.91C36.12 25.27 36.25 25.62 36.39 25.98C36.52 26.34 36.67 26.71 36.79 27.06L36.89 27.05C37.02 26.71 37.13 26.32 37.25 25.97C37.36 25.62 37.49 25.26 37.6 24.9L38.31 22.77L38.33 26.8C38.22 26.8 37.87 26.78 37.78 26.81L37.78 26.87C37.84 26.91 39.78 26.9 39.99 26.89L39.98 26.8L39.45 26.8L39.45 22.48L39.98 22.48L39.98 22.38L38.35 22.38C38.29 22.47 37.92 23.64 37.84 23.85C37.78 24.04 37.39 25.26 37.35 25.32C37.3 25.26 36.86 24.03 36.79 23.85Z" fill="#17180A" fill-opacity="1.000000" fill-rule="evenodd"/>
		<path id="Vector" d="M3.05 22.48C3.19 22.47 4.02 22.46 4.09 22.49C4.16 22.52 4.36 23.09 4.4 23.19C4.5 23.44 4.59 23.68 4.7 23.92C4.77 24.09 4.7 24.17 4.65 24.32C4.59 24.49 4.28 25.41 4.22 25.44L3.63 23.96C3.55 23.77 3.04 22.57 3.05 22.48ZM6.57 25.39L6.55 25.45C6.5 25.43 6.51 25.44 6.48 25.38C6.46 25.22 5.34 22.63 5.34 22.48C5.46 22.47 5.68 22.5 5.77 22.46C5.77 22.36 5.79 22.38 5.55 22.38C4.94 22.39 1.42 22.36 1.28 22.4C1.28 22.48 1.28 22.48 1.38 22.48C1.82 22.47 1.8 22.42 1.89 22.63L2.06 23.06C2.14 23.26 2.22 23.45 2.29 23.64C2.45 24.03 2.6 24.41 2.76 24.8L3.58 26.84C3.6 26.89 3.62 26.94 3.64 26.99C3.67 27.05 3.68 27.07 3.76 27.05C3.81 26.98 4.44 25.16 4.54 24.91C4.58 24.79 4.75 24.27 4.79 24.21C4.88 24.28 5.86 26.93 5.97 27.05C6.09 27.06 6.07 27.01 6.14 26.81C6.57 25.66 6.98 24.47 7.4 23.32C7.48 23.08 7.54 22.89 7.68 22.73C7.9 22.48 8.17 22.51 8.25 22.46L8.25 22.39C8.15 22.37 7.14 22.37 7.06 22.4C7.07 22.57 7.2 22.4 7.37 22.63C7.46 22.76 7.46 22.88 7.4 23.05C7.31 23.32 7.22 23.56 7.12 23.83C7.06 24 6.56 25.33 6.57 25.39Z" fill="#EFA35A" fill-opacity="1.000000" fill-rule="evenodd"/>
		<path id="Vector" d="M23 26.79L23 22.48C23.17 22.46 23.66 22.47 23.81 22.52C24.01 22.6 24.18 22.77 24.27 22.94C24.42 23.23 24.36 24.23 24.36 24.62C24.36 24.92 24.36 25.21 24.36 25.51C24.36 25.8 24.39 26.07 24.28 26.32C24.2 26.49 24.02 26.67 23.83 26.74C23.67 26.8 23.19 26.82 23 26.79ZM22.93 22.38C22.73 22.38 21.41 22.36 21.33 22.39L21.33 22.46C21.43 22.52 21.74 22.47 21.88 22.48L21.88 26.79C21.74 26.81 21.43 26.77 21.33 26.81L21.33 26.87C21.4 26.92 22.75 26.89 22.95 26.89C23.47 26.89 23.95 26.93 24.39 26.72C24.49 26.67 24.58 26.62 24.66 26.57C24.73 26.53 24.85 26.43 24.89 26.39L25.09 26.17C25.4 25.77 25.59 25.19 25.58 24.62C25.57 24 25.29 23.23 24.87 22.86C24.27 22.35 23.72 22.38 22.93 22.38Z" fill="#17180A" fill-opacity="1.000000" fill-rule="evenodd"/>
		<path id="Vector" d="M30.1 22.4C30.54 22.34 30.9 22.67 30.98 23.02C31.05 23.32 31.01 24.17 31.01 24.52C31.01 24.83 31.03 25.84 31.01 26.07C30.92 27.08 29.61 27.14 29.39 26.25C29.33 25.99 29.37 25.06 29.37 24.74C29.37 24.23 29.35 23.7 29.37 23.19C29.37 23.08 29.4 22.97 29.44 22.88C29.5 22.73 29.66 22.56 29.8 22.49C29.89 22.44 29.98 22.42 30.1 22.4ZM32.26 24.74C32.28 24.46 32.21 24.04 32.13 23.79C31.98 23.33 31.8 23.04 31.49 22.76C30.72 22.07 29.38 22.17 28.73 22.91C28.7 22.94 28.68 22.95 28.66 22.98C28.63 23.01 28.63 23.02 28.6 23.06C27.94 23.92 27.97 25.34 28.61 26.22C29.31 27.18 30.88 27.23 31.65 26.36C31.74 26.26 31.82 26.16 31.89 26.04C32.15 25.57 32.21 25.28 32.26 24.74Z" fill="#17180A" fill-opacity="1.000000" fill-rule="evenodd"/>
		<path id="Vector" d="M9.38 9.79C9.34 9.9 9.37 10.89 9.37 11.09C9.37 11.52 9.36 11.97 9.37 12.41L12.14 12.41L12.14 9.44L12.05 9.45C11.95 9.44 10.88 9.59 10.7 9.62C10.48 9.65 10.25 9.67 10.03 9.7C9.85 9.73 9.55 9.75 9.38 9.79Z" fill="#17170A" fill-opacity="1.000000" fill-rule="evenodd"/>
		<path id="Vector" d="M9.37 15.42L12.14 15.69L12.14 12.82L9.37 12.82L9.37 15.42Z" fill="#17180A" fill-opacity="1.000000" fill-rule="evenodd"/>
		<path id="Vector" d="M5.98 15.09L8.86 15.38L8.86 12.82L5.97 12.82L5.98 15.09Z" fill="#17180A" fill-opacity="1.000000" fill-rule="evenodd"/>
		<path id="Vector" d="M5.96 12.42L8.87 12.41L8.86 9.86L5.96 10.25L5.96 12.42Z" fill="#17180A" fill-opacity="1.000000" fill-rule="evenodd"/>
		<path id="Vector" d="M17.6 22.41C17.6 22.5 17.61 22.48 17.7 22.49C18.18 22.54 18.13 22.93 18.13 23.29C18.13 23.73 18.16 24.28 18.13 24.71C18.07 24.68 17.65 23.96 17.58 23.85C17.41 23.56 17.24 23.28 17.06 22.99C16.62 22.27 16.79 22.38 16.25 22.38C16.05 22.38 14.99 22.36 14.9 22.4C14.9 22.48 14.9 22.47 15 22.48C15.08 22.48 15.4 22.46 15.43 22.49C15.46 22.53 15.44 25.7 15.44 26.19C15.44 27 14.89 26.65 14.9 26.87C14.97 26.91 15.97 26.91 16.05 26.88C16.06 26.84 16.06 26.87 16.05 26.81C15.83 26.71 15.53 26.86 15.53 26.17L15.53 22.68C15.6 22.7 15.55 22.67 15.6 22.74L18 26.67C18.09 26.82 18.11 26.9 18.2 26.89C18.21 26.87 18.21 26.88 18.22 26.84L18.22 26.73C18.21 25.54 18.22 24.29 18.22 23.11C18.22 22.91 18.23 22.73 18.35 22.61C18.41 22.55 18.46 22.53 18.55 22.5C18.75 22.45 18.75 22.53 18.76 22.4C18.7 22.37 17.66 22.36 17.6 22.41Z" fill="#EFA35A" fill-opacity="1.000000" fill-rule="evenodd"/>
		<path id="Vector" d="M12.42 22.47C12.5 22.47 12.61 22.49 12.66 22.46C12.66 22.36 12.65 22.38 12.53 22.38C11.91 22.39 11.02 22.36 10.45 22.4C10.46 22.5 10.48 22.48 10.59 22.47C11.05 22.46 11 22.44 11 22.64C10.99 24.02 11.01 25.42 10.99 26.8L10.79 26.8C10.67 26.8 10.43 26.77 10.45 26.85C10.46 26.91 10.56 26.89 10.62 26.89C11.19 26.89 12.17 26.91 12.65 26.88C12.67 26.84 12.67 26.88 12.66 26.81C12.54 26.77 12.26 26.82 12.11 26.79L12.11 22.81C12.11 22.75 12.08 22.5 12.13 22.48C12.14 22.48 12.14 22.48 12.15 22.48L12.19 22.47C12.21 22.47 12.25 22.47 12.27 22.47C12.32 22.47 12.37 22.47 12.42 22.47Z" fill="#EFA359" fill-opacity="1.000000" fill-rule="evenodd"/>
		<path id="Vector" d="M32.93 14.66L32.94 12.66L30.56 12.66L30.56 15.01L32.93 14.66Z" fill="#17170A" fill-opacity="1.000000" fill-rule="evenodd"/>
		<path id="Vector" d="M30.55 12.27L32.94 12.27C32.93 11.96 32.97 10.44 32.92 10.28L30.55 9.93L30.55 12.27Z" fill="#17170A" fill-opacity="1.000000" fill-rule="evenodd"/>
		<path id="Vector" d="M35.55 14.27L35.55 12.66L33.33 12.66L33.33 14.6L35.55 14.27Z" fill="#17170A" fill-opacity="1.000000" fill-rule="evenodd"/>
		<path id="Vector" d="M33.33 12.27L35.55 12.27C35.54 12.02 35.58 10.79 35.54 10.66L33.33 10.34L33.33 12.27Z" fill="#17170A" fill-opacity="1.000000" fill-rule="evenodd"/>
		<path id="Vector" d="M8.59 34.43C8.56 34.51 8.54 34.44 8.54 34.44C8.5 34.32 8.21 33.56 8.16 33.5L7.98 33.5C7.96 33.59 7.96 34.62 7.98 34.7L8.1 34.7L8.1 33.73C8.18 33.82 8.45 34.62 8.53 34.71C8.61 34.7 8.6 34.7 8.63 34.62L8.78 34.23C8.85 34.06 8.92 33.89 8.99 33.72C8.99 33.73 8.99 33.73 8.99 33.74C8.99 33.74 9 33.74 9 33.75C9.02 33.84 8.99 34.54 9.01 34.7L9.14 34.7L9.13 33.5L8.95 33.5C8.9 33.56 8.59 34.36 8.59 34.43Z" fill="#19190E" fill-opacity="1.000000" fill-rule="evenodd"/>
		<path id="Vector" d="M25.21 33.62L25.68 33.62L25.68 34.58L25.06 34.58C25.11 34.42 25.17 34.36 25.19 34.16C25.21 33.97 25.21 33.81 25.21 33.62ZM24.91 34.7L25.82 34.71L25.82 35L25.95 34.99L25.94 34.59L25.81 34.58L25.8 33.5L25.09 33.5C25.05 33.66 25.09 33.96 25.06 34.16C25.04 34.26 25.01 34.35 24.98 34.43C24.82 34.78 24.74 34.32 24.78 34.99L24.91 34.99L24.91 34.7Z" fill="#191710" fill-opacity="1.000000" fill-rule="evenodd"/>
		<path id="Vector" d="M4.64 33.62L5.11 33.62L5.11 34.58L4.49 34.58C4.54 34.43 4.6 34.36 4.63 34.16C4.65 33.97 4.64 33.81 4.64 33.62ZM5.25 34.58C5.24 34.55 5.25 34.62 5.24 34.54L5.23 33.51C5.05 33.51 4.68 33.49 4.52 33.52C4.5 33.74 4.53 33.95 4.49 34.18C4.47 34.28 4.45 34.37 4.41 34.45C4.4 34.46 4.35 34.54 4.34 34.55C4.29 34.61 4.3 34.56 4.22 34.59L4.22 34.99L4.34 34.99L4.34 34.7L5.25 34.71L5.25 35L5.38 34.99L5.37 34.58L5.25 34.58Z" fill="#19190E" fill-opacity="1.000000" fill-rule="evenodd"/>
		<path id="Vector" d="M12.78 33.63L13.25 33.62L13.25 34.58L12.63 34.58C12.68 34.43 12.73 34.36 12.76 34.16C12.78 33.97 12.78 33.82 12.78 33.63ZM12.64 33.96C12.64 34.09 12.62 34.24 12.58 34.36C12.48 34.64 12.44 34.56 12.35 34.59L12.35 34.99L12.48 34.99L12.48 34.7L13.39 34.7L13.39 34.99L13.51 34.99L13.5 34.58L13.38 34.58L13.38 33.52L12.66 33.51C12.67 33.59 12.68 33.92 12.64 33.96Z" fill="#16190D" fill-opacity="1.000000" fill-rule="evenodd"/>
		<path id="Vector" d="M34.43 33.5C34.41 33.68 34.43 34.05 34.43 34.24C34.43 34.65 34.38 34.72 34.52 34.71C34.6 34.7 34.59 34.69 34.62 34.63C34.68 34.55 35.15 33.77 35.21 33.73C35.22 33.91 35.21 34.11 35.21 34.29C35.21 34.75 35.17 34.71 35.33 34.7C35.35 34.62 35.35 33.58 35.33 33.5C35.14 33.49 35.18 33.53 35.08 33.68C35.03 33.77 34.97 33.86 34.91 33.94C34.85 34.04 34.63 34.41 34.57 34.46C34.56 34.28 34.56 34.07 34.56 33.89C34.57 33.47 34.6 33.47 34.43 33.5Z" fill="#191710" fill-opacity="1.000000" fill-rule="evenodd"/>
		<path id="Vector" d="M20.1 34.18C20.03 33.45 20.96 33.39 21.04 34.03C21.07 34.33 20.89 34.57 20.64 34.61C20.35 34.65 20.12 34.44 20.1 34.18ZM19.96 34.21C20.06 34.97 21.27 34.89 21.18 34.01C21.14 33.68 20.85 33.42 20.47 33.48C20.14 33.52 19.9 33.82 19.96 34.21Z" fill="#151710" fill-opacity="1.000000" fill-rule="evenodd"/>
		<path id="Vector" d="M6.16 34.18C6.08 33.46 7.04 33.39 7.1 34.03C7.17 34.75 6.23 34.81 6.16 34.18ZM6.02 34.21C6.13 34.98 7.32 34.9 7.24 34.01C7.16 33.22 5.9 33.32 6.02 34.21Z" fill="#151710" fill-opacity="1.000000" fill-rule="evenodd"/>
		<path id="Vector" d="M26.65 34.7C26.83 34.72 26.81 34.66 26.9 34.53C26.98 34.41 27.38 33.75 27.42 33.73L27.43 34.7L27.55 34.7L27.54 33.5C27.46 33.49 27.42 33.48 27.38 33.55C27.27 33.7 26.83 34.44 26.77 34.47L26.76 33.5C26.59 33.49 26.64 33.53 26.64 33.71C26.64 33.95 26.63 34.53 26.65 34.7Z" fill="#15160E" fill-opacity="1.000000" fill-rule="evenodd"/>
		<path id="Vector" d="M16.49 33.63C16.52 33.66 16.5 33.59 16.51 33.68L16.5 34.08C16.42 34.1 16.31 34.09 16.25 34.06C16.08 34.06 15.95 33.9 16.04 33.73C16.12 33.6 16.34 33.61 16.49 33.63ZM16.64 33.5C16.56 33.49 16.3 33.49 16.21 33.5C16.08 33.52 15.99 33.57 15.93 33.65C15.87 33.73 15.86 33.89 15.91 33.99C15.96 34.11 16.03 34.13 16.15 34.18C16.12 34.32 15.88 34.58 15.86 34.7C16.05 34.71 16 34.73 16.17 34.44C16.34 34.15 16.27 34.19 16.5 34.19C16.51 34.25 16.5 34.65 16.51 34.67C16.52 34.72 16.63 34.74 16.64 34.66C16.66 34.57 16.64 33.55 16.64 33.5Z" fill="#161911" fill-opacity="1.000000" fill-rule="evenodd"/>
		<path id="Vector" d="M31.45 33.98C31.45 34.13 31.44 34.27 31.4 34.4C31.34 34.6 31.29 34.57 31.11 34.59L31.1 34.7C31.66 34.81 31.57 34.06 31.59 33.62L32.04 33.63C32.04 33.85 32.01 34.54 32.05 34.7L32.17 34.7L32.17 33.52L31.47 33.51L31.47 33.86C31.47 33.87 31.47 33.92 31.47 33.93L31.45 33.98Z" fill="#191710" fill-opacity="1.000000" fill-rule="evenodd"/>
		<path id="Vector" d="M22.04 34.14C22.25 34.12 22.57 34.12 22.56 34.38C22.55 34.62 22.25 34.6 22.03 34.59L22.04 34.14ZM22.37 34.69C22.61 34.7 22.77 34.44 22.66 34.2C22.56 33.99 22.28 34.03 22.03 34.01L22.04 33.62C22.14 33.61 22.29 33.62 22.39 33.62C22.52 33.62 22.67 33.67 22.61 33.51C22.53 33.47 22.04 33.49 21.92 33.5L21.92 34.69C22.07 34.7 22.23 34.69 22.37 34.69Z" fill="#151710" fill-opacity="1.000000" fill-rule="evenodd"/>
		<path id="Vector" d="M10.11 34.27C10.13 34.19 10.32 33.71 10.36 33.68L10.59 34.26L10.11 34.27ZM9.8 34.7C9.95 34.71 9.93 34.71 9.98 34.59C10.09 34.32 9.97 34.39 10.65 34.39C10.69 34.49 10.73 34.63 10.79 34.7L10.91 34.7C10.91 34.64 10.46 33.56 10.41 33.5L10.3 33.5C10.25 33.57 9.8 34.64 9.8 34.7Z" fill="#151710" fill-opacity="1.000000" fill-rule="evenodd"/>
		<path id="Vector" d="M15.01 33.62C15.01 33.63 15.02 33.63 15.02 33.63L15.03 33.68C15.04 33.8 15.02 34.48 15.03 34.69L15.14 34.69L15.14 33.51C14.97 33.51 14.6 33.49 14.44 33.52C14.43 33.75 14.45 33.98 14.42 34.21C14.39 34.46 14.36 34.59 14.1 34.59L14.09 34.71C14.64 34.79 14.56 34.07 14.57 33.62L15.01 33.62Z" fill="#19190E" fill-opacity="1.000000" fill-rule="evenodd"/>
		<path id="Vector" d="M29.91 34.58L29.91 34.14L30.47 34.14L30.47 34.02L29.91 34.02L29.91 33.62C30.04 33.62 30.17 33.62 30.29 33.62C30.42 33.62 30.57 33.67 30.51 33.51C30.43 33.48 29.93 33.49 29.8 33.5C29.76 33.59 29.78 34.52 29.79 34.69L30.52 34.69L30.52 34.59C30.42 34.59 30.32 34.59 30.21 34.59C30.08 34.59 29.97 34.61 29.91 34.58Z" fill="#19190E" fill-opacity="1.000000" fill-rule="evenodd"/>
		<path id="Vector" d="M33.71 34.68L33.71 34.58L33.09 34.58L33.1 34.14L33.65 34.14L33.65 34.02L33.09 34.02L33.1 33.62C33.23 33.62 33.6 33.65 33.7 33.61L33.7 33.53C33.61 33.48 33.1 33.5 32.97 33.51L32.97 34.69C33.1 34.7 33.62 34.72 33.71 34.68Z" fill="#19190E" fill-opacity="1.000000" fill-rule="evenodd"/>
		<path id="Vector" d="M18.35 34.7C18.5 34.73 18.47 34.69 18.47 34.54L18.47 33.62L19.09 33.62L19.1 34.7L19.21 34.7L19.21 33.51L18.35 33.51L18.35 34.7Z" fill="#151710" fill-opacity="1.000000" fill-rule="evenodd"/>
		<path id="Vector" d="M23.57 34.57L23.57 34.14L24.14 34.14L24.13 34.02L23.57 34.01L23.57 33.62L24.17 33.62L24.17 33.5L23.45 33.5L23.45 34.69L24.19 34.69L24.19 34.6L23.71 34.59C23.59 34.59 23.6 34.61 23.57 34.57Z" fill="#19190E" fill-opacity="1.000000" fill-rule="evenodd"/>
		<path id="Vector" d="M28.6 33.62L28.61 34.7L28.72 34.7L28.73 33.62L29.12 33.62L29.11 33.5L28.3 33.5C28.25 33.5 28.24 33.48 28.21 33.52C28.2 33.54 28.21 33.6 28.22 33.61C28.24 33.63 28.54 33.62 28.6 33.62Z" fill="#191710" fill-opacity="1.000000" fill-rule="evenodd"/>
		<path id="Vector" d="M9.37 15.42L9.37 12.82L12.14 12.82L12.14 15.69C12.17 15.64 12.16 15.4 12.16 15.34C12.16 14.98 12.17 12.94 12.15 12.81C12.03 12.79 9.46 12.79 9.36 12.81C9.33 12.93 9.35 14.8 9.35 15.12C9.35 15.22 9.33 15.4 9.37 15.42Z" fill="#655A43" fill-opacity="1.000000" fill-rule="evenodd"/>
		<path id="Vector" d="M5.98 15.09L5.97 12.82L8.86 12.82L8.86 15.38C8.89 15.33 8.88 15.29 8.88 15.22C8.87 14.83 8.89 12.95 8.87 12.81C8.76 12.79 6.08 12.79 5.96 12.81C5.93 12.97 5.96 14.53 5.95 14.97C5.95 15.12 5.96 15.08 5.98 15.09Z" fill="#655A43" fill-opacity="1.000000" fill-rule="evenodd"/>
		<path id="Vector" d="M9.38 9.79C9.35 9.82 9.36 9.77 9.35 9.85C9.35 9.86 9.35 9.93 9.35 9.94C9.35 10.35 9.33 12.27 9.36 12.42L12.15 12.41C12.17 12.29 12.17 9.55 12.15 9.43C12.1 9.42 12.08 9.42 12.05 9.45L12.14 9.44L12.14 12.41L9.37 12.41C9.36 11.97 9.37 11.52 9.37 11.09C9.37 10.89 9.34 9.9 9.38 9.79Z" fill="#61533D" fill-opacity="1.000000" fill-rule="evenodd"/>
		<path id="Vector" d="M32.93 14.66C32.96 14.63 32.94 14.69 32.96 14.61L32.96 14.41C32.96 14.06 32.97 12.79 32.95 12.65C32.81 12.62 31.06 12.64 30.69 12.64C30.63 12.64 30.58 12.62 30.56 12.66L32.94 12.66L32.93 14.66Z" fill="#665A3D" fill-opacity="1.000000" fill-rule="evenodd"/>
		<path id="Vector" d="M35.55 14.27C35.57 14.25 35.56 14.28 35.57 14.22L35.57 14.07C35.57 13.78 35.58 12.78 35.56 12.65C35.44 12.62 34.1 12.64 33.87 12.64C33.81 12.64 33.36 12.61 33.33 12.66L35.55 12.66L35.55 14.27Z" fill="#655A43" fill-opacity="1.000000" fill-rule="evenodd"/>
		<path id="Vector" d="M30.55 12.27C30.59 12.3 30.58 12.29 30.7 12.29C31.06 12.28 32.82 12.3 32.95 12.28C32.97 12.14 32.95 11.05 32.95 10.75C32.95 10.64 32.98 10.3 32.92 10.28C32.97 10.44 32.93 11.96 32.94 12.27L30.55 12.27Z" fill="#61533D" fill-opacity="1.000000" fill-rule="evenodd"/>
		<path id="Vector" d="M33.33 12.27C33.36 12.29 33.32 12.29 33.39 12.29C33.61 12.31 35.52 12.29 35.56 12.28C35.58 12.16 35.57 11.12 35.57 10.84C35.57 10.77 35.59 10.68 35.54 10.66C35.58 10.79 35.54 12.02 35.55 12.27L33.33 12.27Z" fill="#5C513C" fill-opacity="1.000000" fill-rule="evenodd"/>
		<path id="Vector" d="M34.91 33.29C34.79 33.31 34.76 33.23 34.72 33.16C34.61 33.17 34.62 33.21 34.68 33.3C34.77 33.45 35.14 33.44 35.13 33.16C34.97 33.15 35.06 33.27 34.91 33.29Z" fill="#151710" fill-opacity="1.000000" fill-rule="evenodd"/>
		<path id="Vector" d="M18.35 34.7L18.35 33.51L19.21 33.51L19.21 34.7C19.22 34.68 19.21 34.72 19.22 34.66L19.23 34.54C19.22 34.31 19.24 33.62 19.22 33.49L18.34 33.5C18.31 33.64 18.33 33.95 18.33 34.11C18.33 34.23 18.31 34.63 18.35 34.7Z" fill="#61533D" fill-opacity="1.000000" fill-rule="evenodd"/>
		<path id="Vector" d="M15.01 33.62L15.02 34.71L15.15 34.7C15.17 34.61 15.17 33.58 15.15 33.5C15.07 33.48 14.74 33.49 14.61 33.49C14.58 33.49 14.53 33.49 14.51 33.49C14.43 33.5 14.46 33.48 14.44 33.52C14.6 33.49 14.97 33.51 15.14 33.51L15.14 34.69L15.03 34.69C15.02 34.48 15.04 33.8 15.03 33.68L15.02 33.63C15.02 33.63 15.01 33.63 15.01 33.62Z" fill="#61533D" fill-opacity="1.000000" fill-rule="evenodd"/>
		<path id="Vector" d="M23.57 34.57C23.6 34.61 23.59 34.59 23.71 34.59L24.19 34.6L24.19 34.69L23.45 34.69L23.45 33.5C23.44 33.52 23.45 33.48 23.44 33.54C23.42 33.64 23.44 34.7 23.44 34.71L24.2 34.7L24.2 34.58L23.57 34.57Z" fill="#61533D" fill-opacity="1.000000" fill-rule="evenodd"/>
		<path id="Vector" d="M29.91 34.58C29.97 34.61 30.08 34.59 30.21 34.59C30.32 34.59 30.42 34.59 30.52 34.59L30.52 34.69L29.79 34.69C29.78 34.52 29.76 33.59 29.8 33.5C29.77 33.52 29.77 33.46 29.77 33.64C29.77 33.69 29.77 33.74 29.77 33.79C29.77 33.89 29.77 33.99 29.77 34.09C29.77 34.26 29.75 34.55 29.78 34.71L30.54 34.7L30.53 34.58L29.91 34.58Z" fill="#655A43" fill-opacity="1.000000" fill-rule="evenodd"/>
		<path id="Vector" d="M33.71 34.68C33.62 34.72 33.1 34.7 32.97 34.69L32.97 33.51C33.1 33.5 33.61 33.48 33.7 33.53C33.68 33.48 33.71 33.49 33.62 33.49L32.95 33.5L32.96 34.7C33.06 34.72 33.24 34.71 33.35 34.71C33.46 34.71 33.7 34.73 33.71 34.68Z" fill="#655A43" fill-opacity="1.000000" fill-rule="evenodd"/>
		<path id="Vector" d="M22.37 34.68C22.23 34.69 22.07 34.7 21.92 34.69L21.92 33.5C21.88 33.58 21.9 34.67 21.91 34.7C21.98 34.71 22.35 34.73 22.37 34.68Z" fill="#61533D" fill-opacity="1.000000" fill-rule="evenodd"/>
		<path id="Vector" d="M5.25 34.58L5.24 33.5C5.15 33.48 4.98 33.49 4.88 33.49C4.81 33.49 4.75 33.49 4.68 33.49C4.66 33.49 4.6 33.49 4.58 33.49C4.51 33.5 4.54 33.48 4.52 33.52C4.68 33.49 5.05 33.51 5.23 33.51L5.24 34.54C5.25 34.62 5.24 34.55 5.25 34.58Z" fill="#5D5233" fill-opacity="1.000000" fill-rule="evenodd"/>
		<path id="Vector" d="M31.45 33.98L31.47 33.93C31.47 33.92 31.47 33.87 31.47 33.86L31.47 33.51L32.17 33.52C32.13 33.48 32.07 33.49 31.99 33.49C31.86 33.49 31.54 33.48 31.45 33.5L31.45 33.98Z" fill="#5D5442" fill-opacity="1.000000" fill-rule="evenodd"/>
		<path id="Vector" d="M12.64 33.96C12.68 33.92 12.67 33.59 12.66 33.51L13.38 33.52C13.35 33.49 13.39 33.51 13.35 33.49C13.35 33.49 13.3 33.49 13.3 33.49L12.65 33.5L12.64 33.96Z" fill="#5D5442" fill-opacity="1.000000" fill-rule="evenodd"/>
		<path id="Vector" d="M16.25 34.06C16.31 34.09 16.42 34.1 16.5 34.08L16.51 33.68C16.5 33.59 16.52 33.66 16.49 33.63L16.5 34.06L16.25 34.06Z" fill="#776A55" fill-opacity="1.000000" fill-rule="evenodd"/>
		<path id="Vector" d="M6.57 25.39C6.56 25.4 6.54 25.41 6.54 25.41C6.54 25.4 6.53 25.41 6.52 25.42L6.48 25.38C6.51 25.44 6.5 25.43 6.55 25.45L6.57 25.39Z" fill="#E7B888" fill-opacity="1.000000" fill-rule="evenodd"/>
		<path id="Vector" d="M39.85 12.77L39.82 12.78C39.84 12.8 39.78 12.81 39.84 12.8C39.9 12.73 39.85 12.77 39.85 12.77Z" fill="#8E846F" fill-opacity="1.000000" fill-rule="evenodd"/>
		<path id="Vector" d="M0.04 12.66L0.04 12.66C0 12.68 0.01 12.65 0 12.71C0.04 12.69 0.02 12.7 0.04 12.66Z" fill="#504732" fill-opacity="1.000000" fill-rule="evenodd"/>
		<path id="Vector" d="M8.54 34.44C8.54 34.44 8.56 34.51 8.59 34.43L8.54 34.44Z" fill="#675A46" fill-opacity="1.000000" fill-rule="evenodd"/>
	</g>
</svg>
