<svg width="187" height="80" viewBox="0 0 187 80" fill="none" xmlns="http://www.w3.org/2000/svg">
<circle cx="40" cy="40" r="39.5" fill="white" fill-opacity="0.2" stroke="#EFA359"/>
<circle cx="40" cy="40" r="35" fill="#F3BA82" fill-opacity="0.8"/>
<path d="M69.0537 41.6982H71.0977C71.0566 42.3682 70.8721 42.9629 70.5439 43.4824C70.2204 44.002 69.7669 44.4076 69.1836 44.6992C68.6048 44.9909 67.9076 45.1367 67.0918 45.1367C66.4538 45.1367 65.8818 45.0273 65.376 44.8086C64.8701 44.5853 64.4372 44.2663 64.0771 43.8516C63.7217 43.4368 63.4505 42.9355 63.2637 42.3477C63.0768 41.7598 62.9834 41.1012 62.9834 40.3721V39.6816C62.9834 38.9525 63.0791 38.2939 63.2705 37.7061C63.4665 37.1136 63.7445 36.61 64.1045 36.1953C64.4691 35.7806 64.9043 35.4616 65.4102 35.2383C65.916 35.015 66.4811 34.9033 67.1055 34.9033C67.9349 34.9033 68.6344 35.0537 69.2041 35.3545C69.7783 35.6553 70.2227 36.07 70.5371 36.5986C70.8561 37.1273 71.0475 37.7288 71.1113 38.4033H69.0605C69.0378 38.0023 68.958 37.6628 68.8213 37.3848C68.6846 37.1022 68.4772 36.8903 68.1992 36.749C67.9258 36.6032 67.5612 36.5303 67.1055 36.5303C66.7637 36.5303 66.4652 36.5941 66.21 36.7217C65.9548 36.8493 65.7406 37.043 65.5674 37.3027C65.3942 37.5625 65.2643 37.8906 65.1777 38.2871C65.0957 38.679 65.0547 39.1393 65.0547 39.668V40.3721C65.0547 40.887 65.0934 41.3405 65.1709 41.7324C65.2484 42.1198 65.3669 42.4479 65.5264 42.7168C65.6904 42.9811 65.9001 43.1816 66.1553 43.3184C66.415 43.4505 66.7272 43.5166 67.0918 43.5166C67.5202 43.5166 67.8734 43.4482 68.1514 43.3115C68.4294 43.1748 68.6413 42.972 68.7871 42.7031C68.9375 42.4342 69.0264 42.0993 69.0537 41.6982ZM73.3809 35.0469H75.1172L77.6738 42.3545L80.2305 35.0469H81.9668L78.3711 45H76.9766L73.3809 35.0469ZM72.4443 35.0469H74.1738L74.4883 42.1699V45H72.4443V35.0469ZM81.1738 35.0469H82.9102V45H80.8594V42.1699L81.1738 35.0469ZM92.8838 39.791V40.2627C92.8838 41.0192 92.7812 41.6982 92.5762 42.2998C92.3711 42.9014 92.0817 43.4141 91.708 43.8379C91.3343 44.2572 90.8877 44.5785 90.3682 44.8018C89.8532 45.0251 89.2812 45.1367 88.6523 45.1367C88.028 45.1367 87.4561 45.0251 86.9365 44.8018C86.4215 44.5785 85.9749 44.2572 85.5967 43.8379C85.2184 43.4141 84.9245 42.9014 84.7148 42.2998C84.5098 41.6982 84.4072 41.0192 84.4072 40.2627V39.791C84.4072 39.0299 84.5098 38.3509 84.7148 37.7539C84.9199 37.1523 85.2093 36.6396 85.583 36.2158C85.9613 35.792 86.4079 35.4684 86.9229 35.2451C87.4424 35.0218 88.0143 34.9102 88.6387 34.9102C89.2676 34.9102 89.8395 35.0218 90.3545 35.2451C90.874 35.4684 91.3206 35.792 91.6943 36.2158C92.0726 36.6396 92.3643 37.1523 92.5693 37.7539C92.779 38.3509 92.8838 39.0299 92.8838 39.791ZM90.8125 40.2627V39.7773C90.8125 39.2487 90.7646 38.7839 90.6689 38.3828C90.5732 37.9818 90.432 37.6445 90.2451 37.3711C90.0583 37.0977 89.8304 36.8926 89.5615 36.7559C89.2926 36.6146 88.985 36.5439 88.6387 36.5439C88.2923 36.5439 87.9847 36.6146 87.7158 36.7559C87.4515 36.8926 87.2259 37.0977 87.0391 37.3711C86.8568 37.6445 86.7178 37.9818 86.6221 38.3828C86.5264 38.7839 86.4785 39.2487 86.4785 39.7773V40.2627C86.4785 40.7868 86.5264 41.2516 86.6221 41.6572C86.7178 42.0583 86.859 42.3978 87.0459 42.6758C87.2327 42.9492 87.4606 43.1566 87.7295 43.2979C87.9984 43.4391 88.306 43.5098 88.6523 43.5098C88.9987 43.5098 89.3063 43.4391 89.5752 43.2979C89.8441 43.1566 90.0697 42.9492 90.252 42.6758C90.4342 42.3978 90.5732 42.0583 90.6689 41.6572C90.7646 41.2516 90.8125 40.7868 90.8125 40.2627ZM98.3457 35.0469V45H96.3018V35.0469H98.3457ZM101.408 35.0469V36.6533H93.2871V35.0469H101.408ZM106.453 41.4521H103.917V39.8525H106.453C106.845 39.8525 107.164 39.7887 107.41 39.6611C107.656 39.529 107.836 39.3467 107.95 39.1143C108.064 38.8818 108.121 38.6198 108.121 38.3281C108.121 38.0319 108.064 37.7562 107.95 37.501C107.836 37.2458 107.656 37.0407 107.41 36.8857C107.164 36.7308 106.845 36.6533 106.453 36.6533H104.628V45H102.577V35.0469H106.453C107.232 35.0469 107.9 35.1882 108.456 35.4707C109.017 35.7487 109.445 36.1338 109.741 36.626C110.037 37.1182 110.186 37.681 110.186 38.3145C110.186 38.957 110.037 39.513 109.741 39.9824C109.445 40.4518 109.017 40.8141 108.456 41.0693C107.9 41.3245 107.232 41.4521 106.453 41.4521ZM118.279 43.4004V45H112.981V43.4004H118.279ZM113.651 35.0469V45H111.601V35.0469H113.651ZM117.589 39.1006V40.6592H112.981V39.1006H117.589ZM118.272 35.0469V36.6533H112.981V35.0469H118.272ZM124.062 35.0469V45H122.019V35.0469H124.062ZM127.125 35.0469V36.6533H119.004V35.0469H127.125ZM129.729 38.6768H132.054C132.838 38.6768 133.512 38.8066 134.077 39.0664C134.642 39.3262 135.077 39.6908 135.383 40.1602C135.688 40.6296 135.841 41.1764 135.841 41.8008C135.841 42.2747 135.754 42.7077 135.581 43.0996C135.408 43.487 135.155 43.8242 134.822 44.1113C134.494 44.3939 134.098 44.6126 133.633 44.7676C133.168 44.9225 132.642 45 132.054 45H128.39V35.0469H130.447V43.4004H132.054C132.446 43.4004 132.769 43.3275 133.024 43.1816C133.28 43.0358 133.471 42.8421 133.599 42.6006C133.731 42.3545 133.797 42.0833 133.797 41.7871C133.797 41.5046 133.731 41.2493 133.599 41.0215C133.471 40.7891 133.28 40.6068 133.024 40.4746C132.769 40.3424 132.446 40.2764 132.054 40.2764H129.729V38.6768ZM144.536 40.6318H141.979L141.966 39.2236H144.112C144.491 39.2236 144.8 39.1758 145.042 39.0801C145.284 38.9798 145.464 38.8363 145.582 38.6494C145.705 38.458 145.767 38.2256 145.767 37.9521C145.767 37.6423 145.707 37.3916 145.589 37.2002C145.475 37.0088 145.295 36.8698 145.049 36.7832C144.807 36.6966 144.495 36.6533 144.112 36.6533H142.69V45H140.64V35.0469H144.112C144.691 35.0469 145.208 35.1016 145.664 35.2109C146.124 35.3203 146.514 35.4867 146.833 35.71C147.152 35.9333 147.396 36.2158 147.564 36.5576C147.733 36.8949 147.817 37.2959 147.817 37.7607C147.817 38.1709 147.724 38.5492 147.537 38.8955C147.355 39.2419 147.065 39.5244 146.669 39.7432C146.277 39.9619 145.764 40.0827 145.131 40.1055L144.536 40.6318ZM144.447 45H141.419L142.219 43.4004H144.447C144.807 43.4004 145.101 43.3434 145.329 43.2295C145.557 43.111 145.726 42.9515 145.835 42.751C145.944 42.5505 145.999 42.3203 145.999 42.0605C145.999 41.7689 145.949 41.516 145.849 41.3018C145.753 41.0876 145.598 40.9235 145.384 40.8096C145.17 40.6911 144.887 40.6318 144.536 40.6318H142.561L142.574 39.2236H145.035L145.507 39.7773C146.113 39.7682 146.601 39.8753 146.97 40.0986C147.343 40.3174 147.615 40.6022 147.783 40.9531C147.956 41.304 148.043 41.68 148.043 42.0811C148.043 42.7191 147.904 43.2568 147.626 43.6943C147.348 44.1273 146.94 44.4531 146.402 44.6719C145.869 44.8906 145.217 45 144.447 45ZM151.557 41.7734L155.556 35.0469H157.606V45H155.556V38.2734L151.557 45H149.506V35.0469H151.557V41.7734ZM167.43 43.4004V45H160.259V43.4004H167.43ZM160.867 43.4004V47.4404H158.939L158.83 43.4004H160.867ZM168.906 43.4004L168.729 47.4473H166.849V43.4004H168.906ZM166.302 35.0469V36.6533H161.51V35.0469H166.302ZM167.765 35.0469V45H165.721V35.0469H167.765ZM161.257 35.0469H163.308L163.041 39.1006C163 39.7705 162.927 40.363 162.822 40.8779C162.722 41.3883 162.599 41.8372 162.453 42.2246C162.312 42.612 162.155 42.9515 161.981 43.2432C161.808 43.5303 161.626 43.7809 161.435 43.9951C161.243 44.2048 161.049 44.3916 160.854 44.5557C160.658 44.7152 160.466 44.8633 160.279 45H159.104V43.4004H159.562C159.694 43.291 159.833 43.1406 159.979 42.9492C160.129 42.7578 160.27 42.5003 160.402 42.1768C160.539 41.8486 160.658 41.4339 160.758 40.9326C160.863 40.4313 160.94 39.8206 160.99 39.1006L161.257 35.0469ZM176.645 43.4004V45H171.347V43.4004H176.645ZM172.017 35.0469V45H169.966V35.0469H172.017ZM175.954 39.1006V40.6592H171.347V39.1006H175.954ZM176.638 35.0469V36.6533H171.347V35.0469H176.638ZM186.017 39.791V40.2627C186.017 41.0192 185.914 41.6982 185.709 42.2998C185.504 42.9014 185.215 43.4141 184.841 43.8379C184.467 44.2572 184.021 44.5785 183.501 44.8018C182.986 45.0251 182.414 45.1367 181.785 45.1367C181.161 45.1367 180.589 45.0251 180.069 44.8018C179.554 44.5785 179.108 44.2572 178.729 43.8379C178.351 43.4141 178.057 42.9014 177.848 42.2998C177.643 41.6982 177.54 41.0192 177.54 40.2627V39.791C177.54 39.0299 177.643 38.3509 177.848 37.7539C178.053 37.1523 178.342 36.6396 178.716 36.2158C179.094 35.792 179.541 35.4684 180.056 35.2451C180.575 35.0218 181.147 34.9102 181.771 34.9102C182.4 34.9102 182.972 35.0218 183.487 35.2451C184.007 35.4684 184.453 35.792 184.827 36.2158C185.205 36.6396 185.497 37.1523 185.702 37.7539C185.912 38.3509 186.017 39.0299 186.017 39.791ZM183.945 40.2627V39.7773C183.945 39.2487 183.897 38.7839 183.802 38.3828C183.706 37.9818 183.565 37.6445 183.378 37.3711C183.191 37.0977 182.963 36.8926 182.694 36.7559C182.425 36.6146 182.118 36.5439 181.771 36.5439C181.425 36.5439 181.118 36.6146 180.849 36.7559C180.584 36.8926 180.359 37.0977 180.172 37.3711C179.99 37.6445 179.851 37.9818 179.755 38.3828C179.659 38.7839 179.611 39.2487 179.611 39.7773V40.2627C179.611 40.7868 179.659 41.2516 179.755 41.6572C179.851 42.0583 179.992 42.3978 180.179 42.6758C180.366 42.9492 180.593 43.1566 180.862 43.2979C181.131 43.4391 181.439 43.5098 181.785 43.5098C182.132 43.5098 182.439 43.4391 182.708 43.2979C182.977 43.1566 183.202 42.9492 183.385 42.6758C183.567 42.3978 183.706 42.0583 183.802 41.6572C183.897 41.2516 183.945 40.7868 183.945 40.2627Z" fill="white"/>
<path d="M45.7969 35.3456C48.7539 37.326 48.7538 41.674 45.7969 43.6544L41.0323 46.8454C37.7102 49.0702 33.25 46.6893 33.25 42.691V36.309C33.25 32.3107 37.7102 29.9298 41.0323 32.1546L45.7969 35.3456Z" fill="white"/>
</svg>
