<svg width="910.617920" height="145.605469" viewBox="0 0 910.618 145.605" fill="none" xmlns="http://www.w3.org/2000/svg" xmlns:xlink="http://www.w3.org/1999/xlink">
	<desc>
			Created with Pixso.
	</desc>
	<defs/>
	<path id="WIN" d="M46.38 143.6L78.41 143.6L106.78 61.62L134.81 143.6L166.4 143.6L213.18 2.83L173.82 2.83L150.19 86.23L120.99 2.44L93.01 2.44L63.81 86.23L40.18 2.83L0 2.83L46.38 143.6ZM229.41 142.82L265.4 142.82L265.4 2.83L229.41 2.83L229.41 142.82ZM292.98 142.82L328.38 142.82L328.38 65.42L390.39 142.82L420.18 142.82L420.18 2.83L385.02 2.83L385.02 79.83L323.79 2.83L292.98 2.83L292.98 142.82Z" fill="#EFA359" fill-opacity="1.000000" fill-rule="evenodd"/>
	<path id="DOM" d="M706.73 137.74Q716.59 132.69 724.8 124.41Q734.65 114.47 739.88 102.51Q745.79 88.97 745.79 72.85Q745.79 56.61 739.81 43Q734.59 31.12 724.8 21.24Q716.54 12.89 706.61 7.82Q691.29 0 671.97 0Q652.76 0 637.49 7.75Q627.49 12.83 619.18 21.24Q609.39 31.12 604.17 43Q598.19 56.61 598.19 72.85Q598.19 88.97 604.11 102.51Q609.33 114.47 619.18 124.41Q627.44 132.75 637.38 137.8Q652.69 145.6 671.97 145.6Q691.36 145.6 706.73 137.74ZM446.98 142.82L502.79 142.82Q531.1 142.82 550.59 129.71Q554.8 126.88 558.6 123.43Q567.07 115.81 572.22 106.37Q580.18 91.76 580.18 72.8Q580.18 54.93 572.91 40.82Q567.65 30.64 558.6 22.41Q553.85 18.13 548.51 14.79Q529.4 2.83 502.79 2.83L446.98 2.83L446.98 142.82ZM768.18 142.82L804.22 142.82L804.22 57.42L830 95.01L849.82 95.01L874.82 57.42L874.82 142.82L910.61 142.82L910.61 2.83L875.02 2.83L839.42 56.64L804.02 2.83L768.18 2.83L768.18 142.82ZM656.38 109.11Q650.45 106.33 645.6 101.22Q642.96 98.42 640.98 95.22Q635.2 85.81 635.2 72.85Q635.2 59.76 641.06 50.31Q643 47.17 645.6 44.43Q650.49 39.25 656.49 36.46Q663.49 33.2 672.02 33.2Q680.02 33.2 686.71 36.17Q693.04 38.97 698.19 44.43Q701.36 47.77 703.58 51.66Q708.78 60.77 708.78 72.85Q708.78 84.81 703.65 93.86Q701.41 97.82 698.19 101.22Q693.08 106.61 686.81 109.4Q680.08 112.4 672.02 112.4Q663.43 112.4 656.38 109.11ZM483.02 111.23L483.02 34.42L500.2 34.42Q520.61 34.42 531.8 44.43Q534.2 46.57 536.09 49.09Q543.03 58.38 543.03 72.85Q543.03 87.22 536.15 96.47Q534.24 99.04 531.8 101.22Q520.61 111.23 500.2 111.23L483.02 111.23Z" fill="#FFFFFF" fill-opacity="1.000000" fill-rule="evenodd"/>
</svg>
